<svg id="svg" version="1.1" xmlns="http://www.w3.org/2000/svg" xmlns:xlink="http://www.w3.org/1999/xlink" width="400" height="400" viewBox="0, 0, 400,400"><g id="svgg"><path id="path0" d="M101.280 145.680 C 100.618 146.342,100.579 246.216,101.240 246.625 C 101.983 247.084,122.913 246.804,123.487 246.328 C 123.824 246.048,124.000 244.836,124.000 242.800 C 124.000 238.387,124.566 238.022,127.321 240.658 C 130.907 244.090,135.756 246.812,140.856 248.256 C 163.914 254.786,182.862 237.901,182.887 210.800 C 182.909 186.407,167.766 170.458,148.135 174.197 C 142.249 175.318,134.496 179.226,132.209 182.223 C 131.369 183.325,130.885 183.618,130.062 183.523 L 129.000 183.400 128.947 167.442 C 128.904 154.391,128.794 151.432,128.347 151.198 C 128.046 151.041,126.000 150.523,123.800 150.046 C 121.600 149.570,118.720 148.916,117.400 148.594 C 115.234 148.066,113.505 147.678,104.800 145.770 C 101.669 145.084,101.871 145.089,101.280 145.680 M222.800 168.989 C 202.555 175.106,193.960 203.080,206.289 222.726 C 214.431 235.699,233.567 238.093,246.300 227.730 C 249.514 225.114,251.390 226.647,249.686 230.499 C 249.265 231.449,248.790 232.930,248.628 233.789 C 247.217 241.310,240.552 245.978,231.199 245.994 C 226.417 246.002,214.811 243.622,213.420 242.348 C 211.623 240.702,210.800 241.920,208.660 249.400 C 205.650 259.923,205.647 260.000,208.276 260.000 C 208.999 260.000,210.898 260.339,212.496 260.754 C 237.509 267.251,258.855 262.761,267.426 249.200 C 273.326 239.864,274.381 233.520,274.436 207.031 C 274.455 197.554,274.604 185.660,274.766 180.600 C 275.130 169.205,276.310 170.400,264.697 170.400 C 253.683 170.400,254.000 170.294,254.000 173.990 C 254.000 177.623,253.723 177.685,250.191 174.844 C 242.487 168.647,231.620 166.324,222.800 168.989 M242.126 185.433 C 248.543 187.095,250.000 189.948,250.000 200.846 C 250.000 209.994,249.831 210.701,247.120 212.923 C 235.995 222.039,222.878 212.255,226.208 197.325 C 228.238 188.222,234.587 183.479,242.126 185.433 M145.097 194.207 C 150.253 195.738,154.400 203.206,154.400 210.958 C 154.400 225.322,143.555 233.084,133.151 226.168 C 128.481 223.063,128.746 223.984,128.882 211.305 L 129.000 200.364 131.000 198.568 C 135.785 194.273,140.455 192.828,145.097 194.207 " stroke="none" fill="#f8d333" fill-rule="evenodd"></path><path id="path1" d="M175.200 60.037 C 174.210 60.181,173.265 60.221,173.100 60.126 C 172.935 60.031,172.800 60.124,172.800 60.333 C 172.800 60.559,169.584 60.742,164.900 60.782 C 155.984 60.858,155.927 60.860,156.197 61.130 C 156.574 61.507,155.537 62.351,154.966 62.131 C 154.649 62.010,154.130 62.126,153.812 62.390 C 153.495 62.653,153.047 62.753,152.818 62.611 C 152.578 62.463,152.400 62.713,152.400 63.200 C 152.400 63.666,152.259 63.960,152.087 63.853 C 151.914 63.747,151.354 64.186,150.842 64.830 C 150.329 65.473,149.660 66.000,149.355 66.000 C 149.050 66.000,148.845 66.225,148.900 66.500 C 148.955 66.775,148.775 66.955,148.500 66.900 C 148.225 66.845,148.000 66.982,148.000 67.205 C 148.000 67.455,147.368 67.508,146.339 67.344 C 145.227 67.166,144.763 67.216,144.935 67.495 C 145.262 68.024,143.501 69.200,142.383 69.200 C 141.919 69.200,140.997 69.741,140.336 70.403 C 139.674 71.064,138.970 71.505,138.771 71.382 C 138.572 71.259,138.516 71.438,138.647 71.779 C 138.778 72.121,138.686 72.422,138.443 72.450 C 136.929 72.621,136.326 73.136,136.606 74.019 C 136.759 74.500,136.549 75.022,136.022 75.474 C 135.570 75.861,135.200 76.408,135.200 76.689 C 135.200 76.970,134.941 77.200,134.624 77.200 C 134.307 77.200,133.919 77.408,133.762 77.662 C 133.577 77.961,133.653 78.014,133.978 77.814 C 134.372 77.570,134.382 77.686,134.026 78.352 C 133.621 79.109,133.144 79.366,132.340 79.261 C 132.197 79.242,131.967 79.677,131.829 80.228 C 131.665 80.879,131.340 81.190,130.898 81.115 C 130.450 81.039,130.216 81.272,130.209 81.800 C 130.204 82.240,129.975 82.555,129.700 82.500 C 129.425 82.445,129.245 82.625,129.300 82.900 C 129.355 83.175,129.181 83.357,128.914 83.305 C 128.615 83.246,128.526 83.463,128.682 83.870 C 128.862 84.339,128.788 84.440,128.425 84.216 C 128.054 83.986,127.982 84.112,128.160 84.674 C 128.327 85.199,128.038 85.861,127.267 86.725 C 126.139 87.989,125.275 88.462,125.853 87.500 C 126.057 87.160,125.937 87.176,125.477 87.549 C 124.744 88.143,124.549 88.602,125.200 88.200 C 125.799 87.830,125.682 88.375,125.021 89.036 C 124.703 89.354,124.232 89.566,123.975 89.507 C 123.717 89.448,123.450 89.734,123.382 90.143 C 123.314 90.552,122.885 91.284,122.429 91.769 C 121.973 92.254,121.600 93.124,121.600 93.702 C 121.600 94.819,120.977 95.531,120.708 94.723 C 120.608 94.424,120.445 94.507,120.278 94.941 C 120.117 95.360,120.168 95.543,120.405 95.397 C 120.918 95.080,120.906 95.454,120.373 96.451 C 120.137 96.891,119.930 97.773,119.912 98.411 C 119.893 99.080,119.709 99.467,119.478 99.324 C 119.257 99.188,119.196 99.271,119.343 99.508 C 119.689 100.068,118.794 102.043,118.325 101.754 C 118.129 101.632,118.074 101.955,118.203 102.470 C 118.362 103.105,118.174 103.692,117.619 104.287 C 117.169 104.771,116.800 105.455,116.800 105.807 C 116.800 106.159,116.637 106.346,116.437 106.223 C 116.238 106.100,116.169 106.358,116.284 106.798 C 116.421 107.325,116.171 107.865,115.546 108.385 C 115.026 108.819,114.810 109.179,115.067 109.187 C 115.323 109.194,115.631 108.975,115.751 108.700 C 115.870 108.425,115.860 108.740,115.728 109.400 C 115.596 110.060,115.409 110.690,115.312 110.800 C 114.957 111.205,105.247 111.395,104.639 111.009 C 104.211 110.738,103.865 110.782,103.511 111.154 C 103.088 111.597,103.173 111.645,104.000 111.428 L 105.000 111.167 104.005 111.748 C 103.458 112.068,102.873 112.245,102.705 112.141 C 102.537 112.038,102.400 112.147,102.400 112.384 C 102.400 112.651,101.996 112.714,101.340 112.549 C 100.748 112.401,100.377 112.441,100.498 112.642 C 100.618 112.839,100.465 113.232,100.158 113.516 C 99.851 113.799,99.600 113.922,99.600 113.787 C 99.600 113.653,99.307 113.836,98.948 114.194 C 98.590 114.553,98.072 114.760,97.798 114.655 C 97.524 114.549,97.108 114.883,96.874 115.397 C 96.640 115.910,96.078 116.448,95.624 116.592 C 95.171 116.736,94.800 117.084,94.800 117.365 C 94.800 117.646,94.432 118.209,93.983 118.616 C 93.186 119.337,93.173 119.336,93.447 118.578 C 93.613 118.118,93.579 117.937,93.364 118.136 C 93.164 118.321,92.982 118.771,92.959 119.136 C 92.937 119.501,92.892 120.205,92.859 120.700 C 92.827 121.195,92.609 121.600,92.376 121.600 C 92.143 121.600,92.082 121.375,92.241 121.100 C 92.399 120.825,92.374 120.740,92.186 120.912 C 91.796 121.266,91.607 121.961,91.318 124.100 C 91.207 124.925,90.944 125.600,90.734 125.600 C 90.525 125.600,90.464 125.420,90.600 125.200 C 91.002 124.549,90.543 124.744,89.949 125.477 C 89.494 126.037,89.493 126.097,89.943 125.827 C 90.371 125.569,90.414 125.700,90.143 126.450 C 89.695 127.692,89.695 259.908,90.143 261.150 C 90.383 261.815,90.353 262.018,90.043 261.826 C 89.357 261.403,89.520 261.837,90.277 262.451 C 90.853 262.919,90.903 262.917,90.615 262.438 C 90.385 262.057,90.425 261.968,90.738 262.162 C 90.992 262.319,91.200 263.052,91.200 263.791 C 91.200 265.665,91.547 266.395,92.299 266.107 C 92.665 265.966,92.828 266.031,92.686 266.261 C 92.551 266.479,92.694 267.145,93.004 267.742 C 93.313 268.338,93.370 268.705,93.131 268.557 C 92.878 268.401,92.772 268.516,92.878 268.833 C 92.978 269.133,93.496 269.481,94.030 269.607 C 94.563 269.733,95.000 270.038,95.000 270.285 C 95.000 270.860,95.535 271.395,96.133 271.418 C 96.390 271.428,96.559 271.642,96.509 271.892 C 96.420 272.334,100.039 273.600,101.388 273.600 C 101.753 273.600,102.409 273.791,102.845 274.024 C 103.281 274.257,104.643 274.612,105.872 274.812 C 107.340 275.051,108.296 275.444,108.655 275.957 C 108.956 276.387,109.877 276.948,110.701 277.204 C 111.526 277.460,112.830 277.968,113.600 278.334 C 114.892 278.949,121.459 279.000,198.600 279.000 L 282.200 279.000 284.951 277.884 C 290.789 275.516,294.555 271.694,296.863 265.796 L 297.800 263.400 297.907 201.430 C 297.977 161.546,297.873 138.693,297.617 137.307 C 296.731 132.517,293.559 127.785,288.936 124.358 C 286.954 122.889,285.595 120.580,286.166 119.655 C 286.289 119.456,286.020 118.825,285.569 118.251 C 285.117 117.677,284.878 116.998,285.036 116.742 C 285.209 116.461,285.150 116.384,284.886 116.547 C 284.461 116.809,282.800 115.368,282.800 114.737 C 282.800 114.566,282.530 114.529,282.200 114.655 C 281.870 114.782,281.600 114.730,281.600 114.540 C 281.600 114.351,281.059 113.956,280.398 113.663 C 279.722 113.364,279.312 112.943,279.460 112.702 C 279.631 112.426,279.418 112.354,278.863 112.499 C 278.389 112.623,277.898 112.559,277.773 112.356 C 277.647 112.153,277.365 112.098,277.145 112.234 C 276.926 112.369,276.659 112.147,276.553 111.740 C 276.370 111.040,275.814 111.007,266.310 111.131 C 255.941 111.267,253.512 111.103,253.662 110.279 C 253.710 110.016,253.597 108.990,253.411 108.000 C 253.225 107.010,253.042 105.840,253.004 105.400 C 252.965 104.960,252.679 104.600,252.367 104.599 C 252.055 104.598,251.780 104.328,251.755 103.999 C 251.669 102.841,250.738 100.862,250.179 100.647 C 249.832 100.514,249.713 100.154,249.870 99.715 C 250.012 99.322,249.982 99.132,249.804 99.293 C 249.232 99.811,247.993 97.967,248.244 96.968 C 248.403 96.335,248.150 95.618,247.438 94.685 C 246.867 93.937,246.400 92.837,246.400 92.241 C 246.400 91.645,245.950 90.495,245.400 89.686 C 244.850 88.877,244.400 87.992,244.400 87.720 C 244.400 87.444,244.134 87.327,243.800 87.455 C 243.387 87.614,243.200 87.430,243.200 86.866 C 243.200 86.416,243.020 85.936,242.800 85.800 C 242.580 85.664,242.400 85.373,242.400 85.153 C 242.400 84.933,242.608 84.881,242.862 85.038 C 243.150 85.216,243.215 85.148,243.034 84.855 C 242.875 84.598,242.622 84.457,242.472 84.542 C 242.323 84.628,241.840 84.333,241.400 83.887 C 240.960 83.442,240.853 83.223,241.162 83.400 C 241.539 83.617,241.630 83.572,241.438 83.262 C 241.281 83.008,240.847 82.800,240.473 82.800 C 240.099 82.800,239.568 82.440,239.293 82.000 C 239.018 81.560,238.570 81.199,238.297 81.198 C 238.023 81.197,237.225 80.657,236.522 79.998 C 235.819 79.339,235.131 78.800,234.993 78.800 C 234.503 78.800,233.643 77.690,233.919 77.414 C 234.074 77.260,234.020 77.170,233.800 77.214 C 232.862 77.403,232.070 77.161,231.863 76.620 C 231.705 76.208,231.837 76.111,232.320 76.284 C 232.702 76.421,232.859 76.373,232.678 76.175 C 232.500 75.980,231.739 75.782,230.986 75.734 C 230.233 75.686,229.219 75.276,228.733 74.823 C 228.247 74.370,227.613 74.000,227.325 74.000 C 227.036 74.000,226.453 73.685,226.029 73.300 C 223.497 71.002,220.936 69.200,220.203 69.200 C 219.872 69.200,219.600 69.020,219.600 68.800 C 219.600 68.580,219.341 68.400,219.024 68.400 C 218.707 68.400,218.319 68.192,218.162 67.938 C 217.985 67.652,218.052 67.585,218.338 67.762 C 218.592 67.919,218.800 67.837,218.800 67.579 C 218.800 67.263,218.357 67.194,217.439 67.366 C 216.494 67.544,215.898 67.441,215.487 67.030 C 215.162 66.704,214.755 66.565,214.584 66.719 C 214.413 66.874,214.383 66.691,214.519 66.314 C 214.726 65.735,214.578 65.664,213.582 65.864 C 212.932 65.994,212.399 65.942,212.397 65.750 C 212.396 65.558,211.010 65.383,209.318 65.362 C 207.542 65.339,206.181 65.144,206.100 64.900 C 206.022 64.666,205.412 64.562,204.737 64.669 C 203.926 64.797,203.604 64.716,203.781 64.431 C 203.927 64.194,203.857 64.000,203.624 64.000 C 203.391 64.000,203.200 64.259,203.200 64.576 C 203.200 64.893,203.036 65.254,202.836 65.378 C 202.319 65.697,201.160 65.188,201.426 64.758 C 201.548 64.561,201.367 64.400,201.024 64.400 C 200.681 64.400,200.400 64.209,200.400 63.976 C 200.400 63.743,200.225 63.661,200.011 63.793 C 199.797 63.926,199.302 63.650,198.911 63.181 C 198.327 62.479,197.266 61.830,196.000 61.399 C 195.890 61.362,195.530 61.220,195.200 61.085 C 194.870 60.949,191.990 60.753,188.800 60.648 C 183.764 60.483,181.209 60.304,177.800 59.876 C 177.360 59.821,176.190 59.893,175.200 60.037 M165.034 66.739 C 168.459 67.991,173.274 71.369,171.865 71.530 C 171.227 71.603,170.424 71.384,170.033 71.030 C 169.650 70.683,169.161 70.400,168.946 70.400 C 168.731 70.400,167.971 69.969,167.257 69.442 C 165.540 68.175,163.077 67.835,160.734 68.540 C 158.618 69.177,158.592 69.195,154.272 73.177 C 152.593 74.724,152.039 74.989,149.983 75.232 C 146.438 75.650,143.918 78.072,143.353 81.606 C 143.115 83.091,142.986 83.225,141.566 83.452 C 139.859 83.725,138.222 85.025,136.650 87.356 C 134.822 90.066,135.648 91.458,138.787 90.956 C 139.819 90.791,140.400 90.850,140.400 91.122 C 140.400 91.586,140.067 91.704,136.800 92.397 C 133.443 93.109,131.568 93.933,130.650 95.100 C 129.241 96.892,128.000 99.995,127.996 101.740 C 127.992 103.139,127.730 103.674,126.325 105.143 C 123.351 108.253,122.516 116.965,125.295 115.895 C 125.573 115.788,126.045 114.868,126.344 113.850 C 126.643 112.833,127.054 112.000,127.257 112.000 C 127.459 112.000,127.585 111.408,127.536 110.685 C 127.307 107.276,132.379 107.201,133.923 110.591 C 134.654 112.196,133.843 112.078,132.005 110.313 L 130.283 108.658 129.541 109.629 C 129.134 110.163,128.648 110.788,128.461 111.017 C 128.275 111.247,128.030 112.259,127.916 113.266 C 127.803 114.273,127.399 115.705,127.019 116.449 C 124.778 120.830,123.880 126.584,125.052 129.053 C 126.484 132.070,128.300 131.275,127.788 127.856 C 127.255 124.304,128.921 121.343,129.718 124.427 C 130.403 127.080,131.600 127.510,133.258 125.700 C 134.291 124.574,135.998 120.806,136.002 119.647 C 136.009 117.781,136.890 115.773,137.264 116.772 C 138.651 120.481,135.691 127.713,132.303 128.894 C 130.152 129.644,130.503 133.247,133.084 136.919 C 135.728 140.681,138.188 142.000,142.564 142.000 C 146.705 142.000,147.137 141.330,145.431 137.548 C 144.898 136.367,144.335 134.173,144.181 132.674 C 143.912 130.052,143.841 129.910,142.337 128.960 C 139.901 127.422,139.200 126.545,139.200 125.033 C 139.200 123.281,140.005 123.011,140.894 124.465 C 142.217 126.628,144.400 125.759,144.400 123.069 C 144.400 122.085,144.927 120.417,145.811 118.604 L 147.222 115.710 146.261 113.755 C 145.107 111.410,144.389 103.067,145.372 103.445 C 145.661 103.556,146.012 104.491,146.152 105.523 C 147.045 112.103,150.818 116.176,150.097 109.782 C 149.721 106.451,151.432 101.912,154.273 98.699 C 155.568 97.234,156.003 95.496,155.200 95.000 C 154.600 94.629,154.719 93.200,155.350 93.200 C 155.653 93.200,156.005 93.724,156.133 94.364 C 156.747 97.437,160.468 96.127,161.205 92.578 C 162.917 84.328,151.792 80.338,149.452 88.363 C 149.167 89.340,148.839 89.973,148.722 89.770 C 147.014 86.783,149.954 82.205,153.878 81.740 C 156.637 81.413,158.587 82.150,160.691 84.314 C 162.312 85.983,162.499 86.073,163.097 85.474 C 163.816 84.755,163.244 79.948,162.406 79.669 C 162.183 79.594,162.000 79.272,162.000 78.953 C 162.000 78.294,164.122 80.608,164.520 81.700 C 164.865 82.648,165.735 82.581,167.941 81.433 C 168.963 80.901,170.652 80.048,171.694 79.537 C 172.736 79.026,173.675 78.382,173.780 78.107 C 173.973 77.606,173.868 77.482,172.000 76.013 L 171.000 75.227 172.215 75.213 C 172.884 75.206,174.137 75.560,175.000 76.000 C 176.833 76.935,178.298 77.003,179.354 76.204 C 179.769 75.890,180.939 75.521,181.954 75.384 C 186.177 74.815,187.483 73.866,186.952 71.752 L 186.685 70.687 187.886 71.396 C 188.871 71.978,189.564 72.054,191.743 71.821 L 194.400 71.536 194.400 70.168 C 194.400 68.262,197.758 68.951,198.552 71.020 C 198.739 71.506,199.472 71.606,202.292 71.531 C 205.730 71.439,207.279 71.613,210.705 72.477 C 212.014 72.807,212.312 73.024,211.988 73.415 C 210.790 74.858,215.160 79.958,218.301 80.784 C 221.102 81.521,222.261 84.392,219.537 83.847 C 218.163 83.573,212.535 79.177,211.158 77.304 C 208.620 73.849,205.387 72.387,204.020 74.075 L 203.311 74.950 200.356 74.074 C 193.794 72.129,184.771 74.231,187.305 77.115 C 188.439 78.406,189.647 81.261,189.512 82.330 L 189.377 83.400 188.589 81.980 C 186.722 78.619,186.161 77.983,184.500 77.344 C 182.324 76.508,179.692 76.837,177.695 78.194 C 176.880 78.747,175.990 79.200,175.715 79.200 C 175.440 79.200,175.101 79.655,174.962 80.211 C 174.634 81.515,173.684 82.000,171.457 82.000 C 167.646 82.000,165.275 85.694,163.719 94.056 C 163.539 95.020,163.753 95.225,166.178 96.419 C 169.346 97.978,169.244 98.824,165.979 98.071 C 158.251 96.287,150.159 104.082,153.408 110.182 C 154.036 111.360,154.032 111.368,152.119 113.226 C 141.290 123.740,145.947 142.747,160.571 147.729 C 164.961 149.224,166.856 148.395,170.466 143.400 C 173.215 139.596,173.459 137.848,171.841 133.549 L 170.882 131.000 168.093 130.970 C 165.829 130.945,165.087 130.769,164.152 130.033 C 160.061 126.816,156.447 127.601,156.353 131.729 C 156.279 134.952,155.915 136.264,155.300 135.522 C 154.541 134.606,154.224 130.324,154.757 128.205 C 155.111 126.800,155.111 125.810,154.758 124.078 C 153.921 119.980,156.439 115.947,160.666 114.612 C 167.662 112.404,169.500 108.662,165.122 105.544 C 164.505 105.105,164.000 104.465,164.000 104.123 C 164.000 103.073,166.408 103.846,168.009 105.408 C 169.849 107.205,170.776 107.166,172.539 105.215 C 173.338 104.331,174.083 103.810,174.223 104.038 C 174.727 104.853,173.933 106.488,172.182 108.239 C 171.197 109.224,169.949 110.731,169.408 111.587 C 167.897 113.980,166.406 115.157,164.000 115.854 C 162.790 116.204,161.020 116.761,160.066 117.092 C 155.790 118.573,155.969 125.491,160.302 126.215 C 161.126 126.353,162.672 126.901,163.737 127.433 C 167.381 129.252,169.321 128.489,172.057 124.157 C 172.946 122.750,173.837 121.699,174.037 121.823 C 174.928 122.373,173.956 125.912,172.356 127.947 C 171.464 129.081,171.366 130.625,172.166 130.932 C 172.682 131.130,173.288 132.034,174.355 134.200 C 174.572 134.640,174.859 135.675,174.992 136.499 C 175.176 137.627,175.529 138.149,176.418 138.609 C 177.879 139.365,177.928 140.203,176.552 140.923 C 175.046 141.713,171.944 146.747,172.418 147.633 C 173.172 149.042,177.971 149.743,180.131 148.759 C 182.915 147.490,183.486 142.779,181.495 137.500 C 180.291 134.306,180.613 133.839,182.629 135.856 C 186.003 139.230,186.995 143.377,185.388 147.394 C 184.178 150.419,184.302 151.122,186.163 151.785 C 188.020 152.447,188.621 151.694,188.473 148.889 C 188.262 144.879,189.667 141.350,191.115 142.254 C 192.143 142.896,193.144 142.357,195.694 139.786 C 199.004 136.448,199.321 133.241,196.608 130.528 C 195.146 129.066,195.320 129.097,188.000 129.034 C 183.131 128.993,181.210 128.410,179.148 126.348 C 175.796 122.996,177.130 115.693,181.573 113.077 C 182.629 112.455,183.451 112.751,182.426 113.384 C 179.926 114.929,179.185 122.171,181.308 124.295 L 182.731 125.718 188.066 126.046 C 191.000 126.227,194.061 126.488,194.869 126.627 C 197.934 127.155,198.049 123.191,195.050 120.427 C 194.040 119.497,193.938 119.482,192.695 120.074 C 190.558 121.093,189.068 121.284,188.202 120.651 C 187.461 120.109,187.525 120.028,189.409 119.136 C 191.744 118.030,192.179 116.736,190.846 114.864 C 190.402 114.241,189.854 112.576,189.629 111.165 C 189.212 108.546,188.283 107.215,186.856 107.188 C 185.123 107.155,181.664 104.014,180.151 101.100 C 179.837 100.495,179.314 100.000,178.990 100.000 C 178.213 100.000,178.216 98.251,178.993 97.606 C 179.544 97.149,180.400 98.327,180.400 99.541 C 180.400 99.700,181.255 100.651,182.300 101.654 C 186.099 105.301,189.026 106.219,190.097 104.100 C 190.403 103.495,190.847 102.640,191.083 102.200 C 191.320 101.760,191.722 100.950,191.977 100.400 C 192.231 99.850,192.686 98.950,192.988 98.400 C 194.152 96.278,194.161 94.598,193.016 93.453 L 191.964 92.400 195.586 92.400 C 198.713 92.400,199.301 92.291,199.893 91.600 C 200.644 90.722,202.106 90.488,201.765 91.300 C 201.437 92.083,198.842 93.600,197.830 93.600 C 196.781 93.600,194.800 95.758,194.800 96.902 C 194.800 97.721,192.979 101.843,192.194 102.800 C 189.351 106.265,190.900 112.838,195.775 118.000 C 200.339 122.831,200.793 123.892,199.720 127.214 C 199.107 129.112,199.112 129.149,200.351 131.628 C 201.843 134.614,201.855 134.836,200.661 137.400 C 199.753 139.349,198.609 140.502,194.000 144.116 C 189.372 147.745,192.596 154.250,198.119 152.427 C 199.848 151.856,200.655 150.131,201.150 145.942 C 201.427 143.605,201.835 142.333,202.883 140.542 C 205.045 136.847,206.357 133.714,206.642 131.565 C 207.118 127.983,208.669 129.528,208.284 133.200 C 207.957 136.320,208.785 136.884,210.573 134.759 C 215.163 129.304,213.124 123.754,205.200 120.131 C 197.062 116.410,194.495 113.659,195.546 109.781 L 195.866 108.600 196.168 110.193 C 196.900 114.040,198.771 114.481,199.770 111.042 C 200.204 109.550,200.829 108.506,201.799 107.655 C 203.353 106.290,203.666 104.450,202.587 103.024 C 200.557 100.339,201.731 97.651,207.098 92.706 C 209.003 90.950,210.128 88.455,209.468 87.447 C 208.724 86.313,208.471 84.860,209.000 84.763 C 209.828 84.611,210.810 87.339,210.600 89.207 C 210.423 90.782,210.577 91.287,211.799 93.142 C 213.799 96.180,213.715 97.491,211.661 95.267 C 209.705 93.148,209.467 93.169,206.730 95.700 C 203.182 98.983,203.220 101.633,206.868 105.347 L 208.780 107.294 211.368 107.130 C 215.158 106.888,217.200 104.405,217.200 100.036 C 217.200 97.415,217.501 97.331,219.644 99.355 C 222.119 101.693,223.282 103.674,223.126 105.289 C 222.980 106.812,222.263 107.047,222.064 105.637 C 221.860 104.194,219.972 101.547,219.246 101.687 C 218.851 101.763,218.509 102.460,218.318 103.580 C 217.444 108.701,210.964 111.447,207.038 108.359 C 205.637 107.256,204.411 107.586,202.992 109.446 C 200.587 112.599,200.934 116.254,203.726 117.175 C 210.132 119.290,215.200 124.753,215.200 129.545 C 215.200 133.335,212.934 136.317,206.888 140.485 C 203.785 142.624,203.135 148.068,205.904 148.727 C 213.258 150.478,214.966 150.800,216.900 150.800 C 221.261 150.800,222.679 147.363,220.600 141.838 C 219.287 138.350,219.331 138.100,221.036 139.401 C 222.774 140.726,223.746 140.395,225.625 137.840 C 228.307 134.194,226.525 130.515,221.557 129.439 C 220.517 129.214,219.200 126.781,219.200 125.087 C 219.200 124.047,219.891 124.264,220.478 125.489 C 220.800 126.160,221.613 126.811,222.600 127.189 C 230.095 130.052,231.452 137.157,225.387 141.783 C 221.590 144.679,225.710 146.771,230.466 144.361 C 233.187 142.982,233.763 141.655,233.680 136.951 C 233.617 133.326,233.697 132.777,234.364 132.311 C 235.103 131.792,235.342 131.004,235.243 129.400 C 235.216 128.960,233.748 126.980,231.981 125.000 C 227.241 119.689,226.642 116.376,229.485 111.200 C 229.788 110.650,230.277 108.850,230.574 107.200 C 230.871 105.550,231.133 104.591,231.157 105.069 C 231.181 105.547,231.647 106.470,232.193 107.119 L 233.186 108.299 231.997 109.940 C 228.726 114.456,229.308 118.717,233.841 123.429 C 239.106 128.904,239.518 130.898,236.284 135.271 C 234.445 137.759,237.147 138.469,240.043 136.258 C 243.454 133.653,244.420 129.704,242.783 125.048 C 241.912 122.571,242.142 121.600,243.600 121.600 C 246.216 121.600,246.968 109.758,244.583 106.117 C 243.815 104.946,243.824 103.958,244.600 104.255 C 244.930 104.382,245.200 104.804,245.200 105.194 C 245.200 105.583,245.464 106.121,245.788 106.390 C 248.752 108.850,248.997 119.475,246.188 123.762 C 245.617 124.633,245.551 125.349,245.784 128.144 C 246.273 134.019,244.253 137.381,238.545 140.185 C 236.431 141.223,235.626 141.844,235.442 142.574 C 234.727 145.426,229.194 148.800,225.234 148.800 C 224.717 148.800,223.984 149.483,223.174 150.721 C 220.269 155.158,217.369 155.577,204.978 153.352 C 203.986 153.173,203.436 153.400,202.046 154.562 C 201.104 155.348,199.552 156.338,198.596 156.761 C 195.109 158.303,194.632 161.372,196.258 171.800 L 197.380 179.000 197.590 225.800 C 197.833 280.018,198.402 274.000,193.032 274.000 C 188.139 274.000,188.285 274.236,188.347 266.367 C 188.376 262.755,188.597 240.799,188.838 217.575 C 189.354 167.979,189.344 167.787,186.107 162.514 C 182.876 157.251,180.499 155.285,177.375 155.289 C 176.046 155.291,174.465 154.912,172.775 154.187 C 170.670 153.283,169.361 153.034,165.600 152.822 C 160.002 152.505,156.670 151.102,152.277 147.212 C 149.285 144.562,149.117 144.504,147.200 145.460 C 141.997 148.056,133.580 144.670,130.197 138.621 C 129.149 136.748,128.199 135.684,126.577 134.566 C 123.087 132.163,121.288 129.005,121.752 126.099 C 121.884 125.275,122.103 123.870,122.239 122.978 C 122.389 121.993,122.234 120.371,121.843 118.846 C 120.737 114.528,121.643 108.384,123.725 106.083 C 124.096 105.672,124.400 105.059,124.400 104.720 C 124.400 101.002,128.516 93.245,131.232 91.844 C 131.705 91.600,132.705 90.230,133.454 88.800 C 135.286 85.299,136.287 84.131,138.296 83.156 C 139.679 82.484,140.213 81.879,141.195 79.866 C 143.074 76.015,145.372 73.888,148.200 73.380 C 150.295 73.003,152.358 71.940,153.600 70.596 C 157.162 66.744,161.263 65.361,165.034 66.739 M193.816 67.627 C 193.961 67.861,194.017 68.110,193.940 68.179 C 193.642 68.447,191.200 67.890,191.200 67.555 C 191.200 67.050,193.499 67.113,193.816 67.627 M185.600 69.449 C 185.600 69.980,185.491 70.008,185.000 69.600 C 184.670 69.326,184.400 69.034,184.400 68.951 C 184.400 68.868,184.670 68.800,185.000 68.800 C 185.330 68.800,185.600 69.092,185.600 69.449 M216.400 74.647 C 216.400 74.731,215.939 74.800,215.376 74.800 C 214.813 74.800,214.454 74.637,214.577 74.438 C 214.782 74.106,216.400 74.292,216.400 74.647 M225.558 84.760 C 226.241 85.399,226.800 86.209,226.800 86.560 C 226.800 87.593,226.137 87.296,225.612 86.029 C 225.345 85.385,224.873 84.760,224.563 84.641 C 224.254 84.522,224.000 84.239,224.000 84.013 C 224.000 83.396,224.199 83.491,225.558 84.760 M181.600 87.511 C 181.600 87.682,181.040 88.313,180.355 88.914 C 179.317 89.826,179.151 90.205,179.355 91.203 C 180.120 94.938,180.118 94.906,179.553 94.722 C 179.249 94.623,178.730 93.985,178.400 93.304 C 178.070 92.623,177.305 91.678,176.700 91.204 C 175.021 89.888,175.423 88.800,177.588 88.800 C 177.986 88.800,178.736 88.446,179.256 88.013 C 180.201 87.226,181.600 86.926,181.600 87.511 M241.921 99.718 C 241.855 100.169,241.590 100.606,241.334 100.691 C 240.652 100.915,240.280 99.351,240.615 97.665 L 240.906 96.200 241.474 97.549 C 241.787 98.292,241.988 99.268,241.921 99.718 M222.800 109.533 C 222.800 110.968,222.489 111.276,221.547 110.772 C 220.260 110.083,220.629 108.400,222.067 108.400 C 222.605 108.400,222.800 108.701,222.800 109.533 M290.717 127.366 C 293.230 129.722,295.241 133.150,295.869 136.147 C 296.524 139.269,296.646 260.193,295.998 263.609 C 294.827 269.787,289.707 275.228,283.336 277.065 C 279.649 278.128,118.555 278.418,114.275 277.369 C 110.908 276.544,108.348 274.443,110.100 273.943 C 110.375 273.864,128.150 273.932,149.600 274.093 C 171.050 274.255,190.670 274.374,193.200 274.359 C 195.730 274.344,214.990 274.296,236.000 274.252 C 266.278 274.189,274.573 274.062,276.000 273.644 C 280.439 272.342,284.143 269.058,286.323 264.492 L 287.800 261.400 287.800 193.500 C 287.800 138.247,287.896 125.600,288.317 125.600 C 288.602 125.600,289.682 126.395,290.717 127.366 M104.800 145.770 C 113.505 147.678,115.234 148.066,117.400 148.594 C 118.720 148.916,121.600 149.570,123.800 150.046 C 126.000 150.523,128.046 151.041,128.347 151.198 C 128.794 151.432,128.904 154.391,128.947 167.442 L 129.000 183.400 130.062 183.523 C 130.885 183.618,131.369 183.325,132.209 182.223 C 134.496 179.226,142.249 175.318,148.135 174.197 C 167.766 170.458,182.909 186.407,182.887 210.800 C 182.864 235.899,165.111 253.711,144.600 249.214 C 137.238 247.600,131.719 244.868,127.321 240.658 C 124.566 238.022,124.000 238.387,124.000 242.800 C 124.000 244.836,123.824 246.048,123.487 246.328 C 122.913 246.804,101.983 247.084,101.240 246.625 C 100.579 246.216,100.618 146.342,101.280 145.680 C 101.871 145.089,101.669 145.084,104.800 145.770 M131.586 154.374 C 133.042 157.095,131.861 183.220,130.306 182.702 C 129.803 182.535,129.306 155.344,129.782 154.102 C 130.073 153.343,131.118 153.500,131.586 154.374 M279.114 161.708 C 279.471 161.995,279.918 161.965,280.587 161.607 C 282.293 160.694,283.200 161.883,283.200 165.036 C 283.200 167.854,276.838 167.495,276.072 164.633 C 275.710 163.278,275.092 163.343,274.600 164.788 C 273.715 167.392,272.427 167.282,272.400 164.600 C 272.393 163.940,272.223 163.140,272.022 162.822 C 270.869 161.000,277.027 160.033,279.114 161.708 M238.374 168.846 C 242.796 170.082,246.793 172.111,250.191 174.844 C 253.723 177.685,254.000 177.623,254.000 173.990 C 254.000 170.294,253.683 170.400,264.697 170.400 C 276.310 170.400,275.130 169.205,274.766 180.600 C 274.604 185.660,274.455 197.554,274.436 207.031 C 274.381 233.520,273.326 239.864,267.426 249.200 C 258.855 262.761,237.509 267.251,212.496 260.754 C 210.898 260.339,208.999 260.000,208.276 260.000 C 205.647 260.000,205.650 259.923,208.660 249.400 C 210.800 241.920,211.623 240.702,213.420 242.348 C 214.811 243.622,226.417 246.002,231.199 245.994 C 240.552 245.978,247.217 241.310,248.628 233.789 C 248.790 232.930,249.265 231.449,249.686 230.499 C 251.390 226.647,249.514 225.114,246.300 227.730 C 230.757 240.380,209.334 234.310,202.785 215.400 C 193.608 188.903,214.123 162.067,238.374 168.846 M277.506 199.605 C 277.630 230.585,277.433 233.791,274.904 241.800 C 267.663 264.733,246.646 272.122,212.400 263.773 C 209.127 262.975,208.600 262.695,208.600 261.756 C 208.600 261.240,208.854 261.025,209.400 261.080 C 210.873 261.228,216.409 262.358,216.779 262.587 C 217.891 263.274,229.189 264.468,234.800 264.491 C 254.593 264.574,268.492 255.508,272.568 239.857 C 272.893 238.610,273.251 237.441,273.364 237.259 C 274.841 234.868,275.343 226.059,275.486 200.000 C 275.637 172.227,275.618 172.668,276.699 172.876 C 277.357 173.003,277.406 174.626,277.506 199.605 M236.106 185.417 C 221.225 189.424,222.872 216.471,237.997 216.471 C 242.423 216.471,248.120 213.324,249.448 210.147 C 250.376 207.926,250.223 193.386,249.247 191.110 C 247.305 186.580,241.356 184.003,236.106 185.417 M242.985 186.394 C 244.321 186.902,246.249 188.685,245.871 189.063 C 245.711 189.223,244.987 189.139,244.262 188.877 C 234.762 185.442,227.349 195.329,229.322 208.800 C 229.600 210.693,229.572 210.882,229.122 210.153 C 228.835 209.687,228.240 208.795,227.800 208.170 C 226.272 206.002,226.621 196.555,228.358 193.094 C 231.243 187.344,237.702 184.386,242.985 186.394 M138.400 194.186 C 135.984 194.877,133.420 196.396,131.000 198.568 L 129.000 200.364 128.882 211.305 C 128.746 223.984,128.481 223.063,133.151 226.168 C 147.236 235.531,160.331 217.266,151.726 200.258 C 149.036 194.939,143.918 192.608,138.400 194.186 M144.092 194.656 C 145.954 194.963,149.154 197.556,147.706 197.583 C 147.214 197.593,146.034 197.392,145.083 197.138 C 141.760 196.249,135.262 199.065,132.804 202.459 L 131.600 204.120 131.600 213.436 C 131.600 222.924,131.495 223.596,130.159 222.620 C 129.241 221.949,128.756 204.687,129.577 201.927 C 130.848 197.659,138.642 193.754,144.092 194.656 M183.209 196.376 C 183.214 196.719,183.578 197.795,184.019 198.767 C 189.377 210.575,185.037 232.384,175.243 242.871 C 166.326 252.419,149.260 256.253,140.153 250.753 C 139.467 250.339,138.634 250.000,138.302 250.000 C 137.970 250.000,137.465 249.720,137.181 249.377 C 136.896 249.034,136.019 248.463,135.232 248.108 C 133.920 247.516,133.878 247.449,134.733 247.299 C 135.246 247.209,135.980 247.420,136.364 247.768 C 136.749 248.116,137.447 248.400,137.917 248.400 C 138.386 248.400,139.722 248.786,140.885 249.258 C 144.166 250.590,155.850 250.575,159.600 249.235 C 171.034 245.149,178.168 237.072,182.242 223.600 C 183.692 218.802,183.986 202.214,182.679 198.850 C 181.783 196.541,181.736 193.818,182.613 194.976 C 182.936 195.404,183.204 196.034,183.209 196.376 M249.124 228.304 C 249.596 231.498,241.858 236.022,233.510 237.432 C 229.518 238.107,229.320 238.095,223.168 236.827 C 221.439 236.471,217.852 234.809,217.020 233.979 C 216.371 233.332,218.982 233.547,220.651 234.279 C 226.549 236.863,238.628 234.279,246.000 228.856 C 248.381 227.104,248.933 227.007,249.124 228.304 M126.905 245.473 C 126.614 250.387,127.667 250.000,114.575 250.000 C 102.695 250.000,101.709 249.851,103.581 248.335 C 104.405 247.667,105.365 247.600,114.035 247.600 L 123.582 247.600 124.245 246.587 C 124.750 245.817,124.858 245.012,124.696 243.226 C 124.431 240.302,124.992 239.483,126.257 240.951 C 127.035 241.853,127.095 242.274,126.905 245.473 " stroke="none" fill="#5e8f41" fill-rule="evenodd"></path><path id="path2" d="M269.680 316.480 C 269.048 317.112,269.062 318.787,269.700 318.847 C 269.975 318.873,269.660 319.009,269.000 319.149 C 267.898 319.383,267.784 319.567,267.600 321.402 C 267.478 322.623,267.274 323.206,267.076 322.900 C 266.832 322.523,264.405 322.400,257.210 322.400 C 249.940 322.400,247.623 322.519,247.483 322.900 C 247.337 323.300,247.194 323.300,246.770 322.900 C 246.436 322.585,245.047 322.400,243.020 322.400 L 239.800 322.401 239.800 320.900 L 239.800 319.400 233.694 319.290 L 227.588 319.179 227.194 320.216 C 226.504 322.032,226.692 335.267,227.423 336.311 C 228.044 337.198,228.075 337.200,240.734 337.200 C 256.233 337.200,255.200 337.559,255.200 332.177 C 255.200 326.915,255.945 327.355,256.086 332.700 L 256.200 337.000 265.400 337.077 C 270.460 337.119,276.897 337.164,279.705 337.177 L 284.809 337.200 284.560 338.762 C 284.350 340.073,284.441 340.394,285.129 340.762 C 286.345 341.413,296.199 341.342,296.871 340.678 C 297.162 340.390,297.719 340.035,298.108 339.887 C 298.759 339.640,298.807 338.940,298.708 331.109 L 298.600 322.600 294.600 322.377 C 292.400 322.255,290.986 322.120,291.457 322.077 C 293.887 321.858,292.626 319.617,289.900 319.310 C 287.449 319.034,286.319 319.691,286.430 321.329 C 286.585 323.612,286.416 324.365,285.988 323.300 C 285.638 322.431,285.445 322.400,280.413 322.400 L 275.200 322.400 275.200 319.443 C 275.200 317.115,275.065 316.434,274.567 316.243 C 273.467 315.821,270.180 315.980,269.680 316.480 M32.580 318.109 C 32.472 318.388,32.433 322.753,32.492 327.809 L 32.600 337.000 38.715 337.000 C 43.295 337.000,44.911 336.870,45.151 336.481 C 45.404 336.071,45.584 336.099,46.015 336.618 C 46.450 337.142,47.207 337.256,49.780 337.185 C 51.551 337.136,56.691 337.119,61.203 337.148 L 69.406 337.200 69.267 338.944 C 69.093 341.135,69.251 341.187,76.051 341.195 C 80.058 341.199,81.205 341.076,81.600 340.600 C 81.874 340.270,82.340 340.000,82.635 340.000 C 84.002 340.000,84.820 324.180,83.520 322.880 C 82.612 321.972,71.600 322.228,71.600 323.157 C 71.600 323.788,70.890 324.400,70.157 324.400 C 70.060 324.400,69.809 323.950,69.600 323.400 C 69.224 322.410,69.170 322.400,64.447 322.400 C 59.958 322.400,59.687 322.355,59.873 321.641 C 60.355 319.799,59.401 319.200,55.986 319.200 L 52.800 319.200 52.800 320.800 L 52.800 322.400 49.461 322.400 C 46.393 322.400,46.090 322.472,45.724 323.292 L 45.326 324.184 44.849 323.292 C 44.441 322.529,44.041 322.400,42.083 322.400 L 39.794 322.400 39.938 320.590 C 40.149 317.945,39.687 317.600,35.938 317.600 C 33.748 317.600,32.715 317.756,32.580 318.109 M215.614 318.374 C 215.039 319.448,215.095 321.891,215.700 322.135 C 215.975 322.246,215.058 322.351,213.663 322.368 C 211.507 322.395,211.095 322.516,210.923 323.172 C 210.612 324.363,209.777 324.440,208.773 323.371 C 207.419 321.930,197.918 321.859,197.154 323.285 L 196.681 324.170 196.353 323.285 C 195.933 322.149,186.915 321.897,186.003 322.997 C 185.243 323.912,185.307 327.597,186.093 328.171 C 186.684 328.604,186.678 328.684,186.020 329.095 C 185.624 329.342,185.182 330.169,185.039 330.932 C 184.896 331.695,184.509 332.860,184.180 333.520 C 182.485 336.917,184.132 337.307,199.382 337.121 L 209.364 337.000 209.642 336.000 C 209.823 335.350,209.934 335.249,209.960 335.710 C 210.041 337.143,221.398 338.042,222.720 336.720 C 223.227 336.213,223.442 319.495,222.957 318.233 C 222.560 317.198,216.178 317.320,215.614 318.374 M355.168 318.900 C 355.151 319.615,355.046 319.975,354.935 319.700 C 354.725 319.178,350.240 318.980,349.044 319.439 C 348.702 319.570,348.308 320.282,348.170 321.022 L 347.917 322.366 336.459 322.483 C 330.156 322.547,322.445 322.546,319.323 322.479 L 313.646 322.358 313.523 320.879 L 313.400 319.400 310.275 319.400 C 306.920 319.400,304.672 320.913,306.400 322.008 C 306.892 322.320,306.853 322.389,306.180 322.394 C 304.346 322.408,303.473 326.232,305.200 326.684 C 305.936 326.876,306.001 327.235,306.013 331.147 C 306.032 337.569,304.859 337.046,319.500 337.169 L 323.200 337.200 323.200 338.953 C 323.200 341.139,323.344 341.187,329.871 341.195 C 333.350 341.198,334.894 341.051,335.271 340.678 C 335.562 340.390,336.119 340.035,336.508 339.887 C 336.898 339.740,337.325 339.075,337.458 338.409 L 337.700 337.200 342.750 337.161 C 345.528 337.139,352.208 337.094,357.595 337.061 L 367.390 337.000 367.626 335.800 L 367.862 334.600 368.381 335.669 C 369.114 337.179,369.065 337.175,385.319 337.174 L 400.000 337.173 400.000 333.986 L 400.000 330.800 393.200 330.800 L 386.400 330.800 386.400 329.600 C 386.400 328.700,386.585 328.400,387.138 328.400 C 388.346 328.400,389.200 327.091,389.200 325.240 C 389.200 322.389,389.240 322.400,378.639 322.400 L 369.221 322.400 368.565 323.669 C 367.955 324.847,367.878 324.883,367.483 324.169 C 366.757 322.856,365.873 322.427,363.800 322.381 C 362.700 322.357,362.025 322.246,362.300 322.135 C 362.943 321.876,362.959 318.719,362.320 318.080 C 362.024 317.784,360.569 317.600,358.520 317.600 L 355.200 317.600 355.168 318.900 M0.140 326.315 C 0.372 332.510,0.505 333.536,1.203 334.484 C 1.641 335.080,2.000 335.826,2.000 336.141 C 2.000 337.307,7.550 337.710,9.001 336.649 C 9.621 336.195,9.847 336.190,10.277 336.620 C 11.095 337.438,29.082 337.233,29.609 336.400 C 30.114 335.601,30.107 332.800,29.600 332.800 C 29.380 332.800,29.200 332.530,29.200 332.200 C 29.200 331.870,29.380 331.600,29.600 331.600 C 29.836 331.600,30.000 330.167,30.000 328.100 L 30.000 324.600 28.621 323.500 C 27.393 322.520,26.915 322.400,24.234 322.400 C 21.722 322.400,21.263 322.301,21.456 321.799 C 22.231 319.777,21.381 319.200,17.626 319.200 C 15.153 319.200,14.005 319.353,13.865 319.700 C 13.708 320.090,13.656 320.091,13.632 319.706 C 13.608 319.335,11.902 319.215,6.738 319.222 L -0.125 319.231 0.140 326.315 M101.200 320.785 L 101.200 322.400 96.590 322.400 C 91.995 322.400,91.979 322.403,91.585 323.439 C 91.368 324.010,90.833 324.571,90.395 324.685 C 89.165 325.007,89.169 334.762,90.400 335.084 C 90.840 335.199,91.200 335.536,91.200 335.833 C 91.200 336.129,91.548 336.558,91.974 336.786 C 92.808 337.233,130.625 337.395,131.767 336.957 C 132.307 336.750,132.400 335.791,132.400 330.427 C 132.400 321.771,133.272 322.400,121.264 322.400 L 111.980 322.400 111.612 323.368 C 111.410 323.900,110.931 324.511,110.547 324.725 C 109.987 325.039,109.816 325.829,109.676 328.758 C 109.396 334.624,108.829 332.948,108.710 325.900 L 108.600 319.400 104.900 319.285 L 101.200 319.170 101.200 320.785 M151.782 320.300 C 151.614 320.905,151.522 321.842,151.578 322.382 C 151.662 323.206,151.584 323.285,151.089 322.874 C 150.654 322.513,148.242 322.412,141.949 322.492 L 133.400 322.600 133.400 329.800 L 133.400 337.000 146.200 337.079 C 153.240 337.123,161.331 337.168,164.180 337.179 C 168.209 337.195,169.253 337.307,168.880 337.680 C 168.011 338.549,168.285 340.676,169.300 340.948 C 171.368 341.502,180.416 341.225,180.655 340.600 C 180.782 340.270,181.220 340.000,181.629 340.000 C 182.037 340.000,182.558 339.652,182.786 339.226 C 183.396 338.087,183.337 323.497,182.720 322.880 C 181.716 321.876,170.832 322.243,170.444 323.293 L 170.113 324.187 169.830 323.293 C 169.555 322.428,169.381 322.400,164.210 322.400 C 159.168 322.400,158.886 322.358,159.073 321.641 C 159.553 319.806,158.598 319.200,155.229 319.200 C 152.142 319.200,152.081 319.219,151.782 320.300 M236.100 323.865 C 235.825 323.976,235.600 324.307,235.600 324.600 C 235.600 324.893,235.825 325.224,236.100 325.335 C 236.375 325.446,236.195 325.551,235.700 325.568 C 234.998 325.593,234.800 325.380,234.800 324.600 C 234.800 323.820,234.998 323.607,235.700 323.632 C 236.195 323.649,236.375 323.754,236.100 323.865 M235.600 331.200 C 235.600 331.860,235.420 332.400,235.200 332.400 C 234.980 332.400,234.800 331.860,234.800 331.200 C 234.800 330.540,234.980 330.000,235.200 330.000 C 235.420 330.000,235.600 330.540,235.600 331.200 " stroke="none" fill="#0b67f8" fill-rule="evenodd"></path><path id="path3" d="M174.900 59.876 C 175.285 59.976,175.915 59.976,176.300 59.876 C 176.685 59.775,176.370 59.693,175.600 59.693 C 174.830 59.693,174.515 59.775,174.900 59.876 M177.900 59.882 C 178.395 59.978,179.205 59.978,179.700 59.882 C 180.195 59.787,179.790 59.709,178.800 59.709 C 177.810 59.709,177.405 59.787,177.900 59.882 M161.315 60.696 C 162.588 60.776,164.568 60.775,165.715 60.694 C 166.862 60.614,165.820 60.549,163.400 60.550 C 160.980 60.551,160.042 60.616,161.315 60.696 M170.900 60.676 C 171.285 60.776,171.915 60.776,172.300 60.676 C 172.685 60.575,172.370 60.493,171.600 60.493 C 170.830 60.493,170.515 60.575,170.900 60.676 M186.482 60.696 C 187.958 60.773,190.478 60.773,192.082 60.697 C 193.687 60.621,192.480 60.558,189.400 60.558 C 186.320 60.557,185.007 60.619,186.482 60.696 M198.497 62.807 C 199.163 63.873,200.166 64.258,199.620 63.238 C 199.401 62.829,198.950 62.390,198.617 62.262 C 198.110 62.067,198.090 62.156,198.497 62.807 M150.900 63.888 C 150.625 63.986,150.400 64.322,150.400 64.633 C 150.400 64.945,150.220 65.200,150.000 65.200 C 149.780 65.200,149.600 65.423,149.600 65.696 C 149.600 65.969,150.068 65.687,150.640 65.070 C 151.706 63.920,151.783 63.573,150.900 63.888 M203.781 64.431 C 203.604 64.716,203.926 64.797,204.737 64.669 C 205.455 64.556,206.037 64.667,206.148 64.938 C 206.252 65.192,206.351 65.085,206.368 64.700 C 206.404 63.902,204.246 63.678,203.781 64.431 M208.900 65.487 C 209.505 65.578,210.495 65.578,211.100 65.487 C 211.705 65.395,211.210 65.320,210.000 65.320 C 208.790 65.320,208.295 65.395,208.900 65.487 M212.400 65.600 C 212.400 65.820,212.805 65.997,213.300 65.994 C 214.028 65.989,214.085 65.914,213.600 65.600 C 212.824 65.099,212.400 65.099,212.400 65.600 M159.505 66.606 C 157.704 67.267,154.970 69.115,153.600 70.596 C 152.358 71.940,150.295 73.003,148.200 73.380 C 145.372 73.888,143.074 76.015,141.195 79.866 C 140.213 81.879,139.679 82.484,138.296 83.156 C 136.287 84.131,135.286 85.299,133.454 88.800 C 132.705 90.230,131.705 91.600,131.232 91.844 C 128.516 93.245,124.400 101.002,124.400 104.720 C 124.400 105.059,124.096 105.672,123.725 106.083 C 121.643 108.384,120.737 114.528,121.843 118.846 C 122.234 120.371,122.389 121.993,122.239 122.978 C 122.103 123.870,121.884 125.275,121.752 126.099 C 121.288 129.005,123.087 132.163,126.577 134.566 C 128.199 135.684,129.149 136.748,130.197 138.621 C 133.580 144.670,141.997 148.056,147.200 145.460 C 149.117 144.504,149.285 144.562,152.277 147.212 C 156.670 151.102,160.002 152.505,165.600 152.822 C 169.361 153.034,170.670 153.283,172.775 154.187 C 174.465 154.912,176.046 155.291,177.375 155.289 C 180.499 155.285,182.876 157.251,186.107 162.514 C 189.344 167.787,189.354 167.979,188.838 217.575 C 188.597 240.799,188.376 262.755,188.347 266.367 C 188.285 274.236,188.139 274.000,193.032 274.000 C 198.402 274.000,197.833 280.018,197.590 225.800 L 197.380 179.000 196.258 171.800 C 194.632 161.372,195.109 158.303,198.596 156.761 C 199.552 156.338,201.104 155.348,202.046 154.562 C 203.436 153.400,203.986 153.173,204.978 153.352 C 217.369 155.577,220.269 155.158,223.174 150.721 C 223.984 149.483,224.717 148.800,225.234 148.800 C 229.194 148.800,234.727 145.426,235.442 142.574 C 235.626 141.844,236.431 141.223,238.545 140.185 C 244.253 137.381,246.273 134.019,245.784 128.144 C 245.551 125.349,245.617 124.633,246.188 123.762 C 248.997 119.475,248.752 108.850,245.788 106.390 C 245.464 106.121,245.200 105.583,245.200 105.194 C 245.200 104.804,244.930 104.382,244.600 104.255 C 243.824 103.958,243.815 104.946,244.583 106.117 C 246.968 109.758,246.216 121.600,243.600 121.600 C 242.142 121.600,241.912 122.571,242.783 125.048 C 244.420 129.704,243.454 133.653,240.043 136.258 C 237.147 138.469,234.445 137.759,236.284 135.271 C 239.518 130.898,239.106 128.904,233.841 123.429 C 229.308 118.717,228.726 114.456,231.997 109.940 L 233.186 108.299 232.193 107.119 C 231.647 106.470,231.181 105.547,231.157 105.069 C 231.133 104.591,230.871 105.550,230.574 107.200 C 230.277 108.850,229.788 110.650,229.485 111.200 C 226.642 116.376,227.241 119.689,231.981 125.000 C 233.748 126.980,235.216 128.960,235.243 129.400 C 235.342 131.004,235.103 131.792,234.364 132.311 C 233.697 132.777,233.617 133.326,233.680 136.951 C 233.763 141.655,233.187 142.982,230.466 144.361 C 225.710 146.771,221.590 144.679,225.387 141.783 C 231.452 137.157,230.095 130.052,222.600 127.189 C 221.613 126.811,220.800 126.160,220.478 125.489 C 219.891 124.264,219.200 124.047,219.200 125.087 C 219.200 126.781,220.517 129.214,221.557 129.439 C 226.525 130.515,228.307 134.194,225.625 137.840 C 223.746 140.395,222.774 140.726,221.036 139.401 C 219.331 138.100,219.287 138.350,220.600 141.838 C 222.679 147.363,221.261 150.800,216.900 150.800 C 214.966 150.800,213.258 150.478,205.904 148.727 C 203.135 148.068,203.785 142.624,206.888 140.485 C 212.934 136.317,215.200 133.335,215.200 129.545 C 215.200 124.753,210.132 119.290,203.726 117.175 C 200.934 116.254,200.587 112.599,202.992 109.446 C 204.411 107.586,205.637 107.256,207.038 108.359 C 210.964 111.447,217.444 108.701,218.318 103.580 C 218.509 102.460,218.851 101.763,219.246 101.687 C 219.972 101.547,221.860 104.194,222.064 105.637 C 222.263 107.047,222.980 106.812,223.126 105.289 C 223.282 103.674,222.119 101.693,219.644 99.355 C 217.501 97.331,217.200 97.415,217.200 100.036 C 217.200 104.405,215.158 106.888,211.368 107.130 L 208.780 107.294 206.868 105.347 C 203.220 101.633,203.182 98.983,206.730 95.700 C 209.467 93.169,209.705 93.148,211.661 95.267 C 213.715 97.491,213.799 96.180,211.799 93.142 C 210.577 91.287,210.423 90.782,210.600 89.207 C 210.810 87.339,209.828 84.611,209.000 84.763 C 208.471 84.860,208.724 86.313,209.468 87.447 C 210.128 88.455,209.003 90.950,207.098 92.706 C 201.731 97.651,200.557 100.339,202.587 103.024 C 203.666 104.450,203.353 106.290,201.799 107.655 C 200.829 108.506,200.204 109.550,199.770 111.042 C 198.771 114.481,196.900 114.040,196.168 110.193 L 195.866 108.600 195.546 109.781 C 194.495 113.659,197.062 116.410,205.200 120.131 C 213.124 123.754,215.163 129.304,210.573 134.759 C 208.785 136.884,207.957 136.320,208.284 133.200 C 208.669 129.528,207.118 127.983,206.642 131.565 C 206.357 133.714,205.045 136.847,202.883 140.542 C 201.835 142.333,201.427 143.605,201.150 145.942 C 200.655 150.131,199.848 151.856,198.119 152.427 C 192.596 154.250,189.372 147.745,194.000 144.116 C 201.598 138.159,202.615 136.159,200.351 131.628 C 199.112 129.149,199.107 129.112,199.720 127.214 C 200.793 123.892,200.339 122.831,195.775 118.000 C 190.900 112.838,189.351 106.265,192.194 102.800 C 192.979 101.843,194.800 97.721,194.800 96.902 C 194.800 95.758,196.781 93.600,197.830 93.600 C 198.842 93.600,201.437 92.083,201.765 91.300 C 202.106 90.488,200.644 90.722,199.893 91.600 C 199.301 92.291,198.713 92.400,195.586 92.400 L 191.964 92.400 193.016 93.453 C 194.161 94.598,194.152 96.278,192.988 98.400 C 192.686 98.950,192.231 99.850,191.977 100.400 C 191.722 100.950,191.320 101.760,191.083 102.200 C 190.847 102.640,190.403 103.495,190.097 104.100 C 189.026 106.219,186.099 105.301,182.300 101.654 C 181.255 100.651,180.400 99.700,180.400 99.541 C 180.400 98.327,179.544 97.149,178.993 97.606 C 178.216 98.251,178.213 100.000,178.990 100.000 C 179.314 100.000,179.837 100.495,180.151 101.100 C 181.664 104.014,185.123 107.155,186.856 107.188 C 188.283 107.215,189.212 108.546,189.629 111.165 C 189.854 112.576,190.402 114.241,190.846 114.864 C 192.179 116.736,191.744 118.030,189.409 119.136 C 187.525 120.028,187.461 120.109,188.202 120.651 C 189.068 121.284,190.558 121.093,192.695 120.074 C 193.938 119.482,194.040 119.497,195.050 120.427 C 198.049 123.191,197.934 127.155,194.869 126.627 C 194.061 126.488,191.000 126.227,188.066 126.046 L 182.731 125.718 181.308 124.295 C 179.185 122.171,179.926 114.929,182.426 113.384 C 183.451 112.751,182.629 112.455,181.573 113.077 C 177.130 115.693,175.796 122.996,179.148 126.348 C 181.210 128.410,183.131 128.993,188.000 129.034 C 195.320 129.097,195.146 129.066,196.608 130.528 C 199.321 133.241,199.004 136.448,195.694 139.786 C 193.144 142.357,192.143 142.896,191.115 142.254 C 189.667 141.350,188.262 144.879,188.473 148.889 C 188.621 151.694,188.020 152.447,186.163 151.785 C 184.302 151.122,184.178 150.419,185.388 147.394 C 186.995 143.377,186.003 139.230,182.629 135.856 C 180.613 133.839,180.291 134.306,181.495 137.500 C 183.486 142.779,182.915 147.490,180.131 148.759 C 177.971 149.743,173.172 149.042,172.418 147.633 C 171.944 146.747,175.046 141.713,176.552 140.923 C 177.928 140.203,177.879 139.365,176.418 138.609 C 175.529 138.149,175.176 137.627,174.992 136.499 C 174.859 135.675,174.572 134.640,174.355 134.200 C 173.288 132.034,172.682 131.130,172.166 130.932 C 171.366 130.625,171.464 129.081,172.356 127.947 C 173.956 125.912,174.928 122.373,174.037 121.823 C 173.837 121.699,172.946 122.750,172.057 124.157 C 169.321 128.489,167.381 129.252,163.737 127.433 C 162.672 126.901,161.126 126.353,160.302 126.215 C 155.969 125.491,155.790 118.573,160.066 117.092 C 161.020 116.761,162.790 116.204,164.000 115.854 C 166.406 115.157,167.897 113.980,169.408 111.587 C 169.949 110.731,171.197 109.224,172.182 108.239 C 173.933 106.488,174.727 104.853,174.223 104.038 C 174.083 103.810,173.338 104.331,172.539 105.215 C 170.776 107.166,169.849 107.205,168.009 105.408 C 166.408 103.846,164.000 103.073,164.000 104.123 C 164.000 104.465,164.505 105.105,165.122 105.544 C 169.500 108.662,167.662 112.404,160.666 114.612 C 156.439 115.947,153.921 119.980,154.758 124.078 C 155.111 125.810,155.111 126.800,154.757 128.205 C 154.224 130.324,154.541 134.606,155.300 135.522 C 155.915 136.264,156.279 134.952,156.353 131.729 C 156.447 127.601,160.061 126.816,164.152 130.033 C 165.087 130.769,165.829 130.945,168.093 130.970 L 170.882 131.000 171.841 133.549 C 173.459 137.848,173.215 139.596,170.466 143.400 C 166.856 148.395,164.961 149.224,160.571 147.729 C 145.947 142.747,141.290 123.740,152.119 113.226 C 154.032 111.368,154.036 111.360,153.408 110.182 C 150.159 104.082,158.251 96.287,165.979 98.071 C 169.244 98.824,169.346 97.978,166.178 96.419 C 163.753 95.225,163.539 95.020,163.719 94.056 C 165.275 85.694,167.646 82.000,171.457 82.000 C 173.684 82.000,174.634 81.515,174.962 80.211 C 175.101 79.655,175.440 79.200,175.715 79.200 C 175.990 79.200,176.880 78.747,177.695 78.194 C 179.692 76.837,182.324 76.508,184.500 77.344 C 186.161 77.983,186.722 78.619,188.589 81.980 L 189.377 83.400 189.512 82.330 C 189.647 81.261,188.439 78.406,187.305 77.115 C 184.771 74.231,193.794 72.129,200.356 74.074 L 203.311 74.950 204.020 74.075 C 205.387 72.387,208.620 73.849,211.158 77.304 C 212.535 79.177,218.163 83.573,219.537 83.847 C 222.261 84.392,221.102 81.521,218.301 80.784 C 215.160 79.958,210.790 74.858,211.988 73.415 C 212.312 73.024,212.014 72.807,210.705 72.477 C 207.279 71.613,205.730 71.439,202.292 71.531 C 199.472 71.606,198.739 71.506,198.552 71.020 C 197.758 68.951,194.400 68.262,194.400 70.168 L 194.400 71.536 191.743 71.821 C 189.564 72.054,188.871 71.978,187.886 71.396 L 186.685 70.687 186.952 71.752 C 187.483 73.866,186.177 74.815,181.954 75.384 C 180.939 75.521,179.769 75.890,179.354 76.204 C 178.298 77.003,176.833 76.935,175.000 76.000 C 174.137 75.560,172.884 75.206,172.215 75.213 L 171.000 75.227 172.000 76.013 C 173.868 77.482,173.973 77.606,173.780 78.107 C 173.675 78.382,172.736 79.026,171.694 79.537 C 170.652 80.048,168.963 80.901,167.941 81.433 C 165.735 82.581,164.865 82.648,164.520 81.700 C 164.122 80.608,162.000 78.294,162.000 78.953 C 162.000 79.272,162.183 79.594,162.406 79.669 C 163.244 79.948,163.816 84.755,163.097 85.474 C 162.499 86.073,162.312 85.983,160.691 84.314 C 158.587 82.150,156.637 81.413,153.878 81.740 C 149.954 82.205,147.014 86.783,148.722 89.770 C 148.839 89.973,149.167 89.340,149.452 88.363 C 151.792 80.338,162.917 84.328,161.205 92.578 C 160.468 96.127,156.747 97.437,156.133 94.364 C 156.005 93.724,155.653 93.200,155.350 93.200 C 154.719 93.200,154.600 94.629,155.200 95.000 C 156.003 95.496,155.568 97.234,154.273 98.699 C 151.432 101.912,149.721 106.451,150.097 109.782 C 150.818 116.176,147.045 112.103,146.152 105.523 C 146.012 104.491,145.661 103.556,145.372 103.445 C 144.389 103.067,145.107 111.410,146.261 113.755 L 147.222 115.710 145.811 118.604 C 144.927 120.417,144.400 122.085,144.400 123.069 C 144.400 125.759,142.217 126.628,140.894 124.465 C 140.005 123.011,139.200 123.281,139.200 125.033 C 139.200 126.545,139.901 127.422,142.337 128.960 C 143.841 129.910,143.912 130.052,144.181 132.674 C 144.335 134.173,144.898 136.367,145.431 137.548 C 147.137 141.330,146.705 142.000,142.564 142.000 C 138.188 142.000,135.728 140.681,133.084 136.919 C 130.503 133.247,130.152 129.644,132.303 128.894 C 135.691 127.713,138.651 120.481,137.264 116.772 C 136.890 115.773,136.009 117.781,136.002 119.647 C 135.998 120.806,134.291 124.574,133.258 125.700 C 131.600 127.510,130.403 127.080,129.718 124.427 C 128.921 121.343,127.255 124.304,127.788 127.856 C 128.300 131.275,126.484 132.070,125.052 129.053 C 123.880 126.584,124.778 120.830,127.019 116.449 C 127.399 115.705,127.803 114.273,127.916 113.266 C 128.030 112.259,128.275 111.247,128.461 111.017 C 128.648 110.788,129.134 110.163,129.541 109.629 L 130.283 108.658 132.005 110.313 C 133.843 112.078,134.654 112.196,133.923 110.591 C 132.379 107.201,127.307 107.276,127.536 110.685 C 127.585 111.408,127.459 112.000,127.257 112.000 C 127.054 112.000,126.643 112.833,126.344 113.850 C 126.045 114.868,125.573 115.788,125.295 115.895 C 122.516 116.965,123.351 108.253,126.325 105.143 C 127.730 103.674,127.992 103.139,127.996 101.740 C 128.000 99.995,129.241 96.892,130.650 95.100 C 131.568 93.933,133.443 93.109,136.800 92.397 C 140.067 91.704,140.400 91.586,140.400 91.122 C 140.400 90.850,139.819 90.791,138.787 90.956 C 135.648 91.458,134.822 90.066,136.650 87.356 C 138.222 85.025,139.859 83.725,141.566 83.452 C 142.986 83.225,143.115 83.091,143.353 81.606 C 143.918 78.072,146.438 75.650,149.983 75.232 C 152.039 74.989,152.593 74.724,154.272 73.177 C 158.592 69.195,158.618 69.177,160.734 68.540 C 163.077 67.835,165.540 68.175,167.257 69.442 C 167.971 69.969,168.731 70.400,168.946 70.400 C 169.161 70.400,169.650 70.683,170.033 71.030 C 170.424 71.384,171.227 71.603,171.865 71.530 C 172.923 71.409,172.799 71.268,170.028 69.439 C 165.156 66.225,162.494 65.508,159.505 66.606 M215.600 67.200 C 216.388 67.709,217.315 67.709,217.000 67.200 C 216.864 66.980,216.358 66.803,215.876 66.806 C 215.164 66.811,215.112 66.885,215.600 67.200 M191.200 67.555 C 191.200 67.890,193.642 68.447,193.940 68.179 C 194.017 68.110,193.961 67.861,193.816 67.627 C 193.499 67.113,191.200 67.050,191.200 67.555 M184.400 68.951 C 184.400 69.034,184.670 69.326,185.000 69.600 C 185.491 70.008,185.600 69.980,185.600 69.449 C 185.600 69.092,185.330 68.800,185.000 68.800 C 184.670 68.800,184.400 68.868,184.400 68.951 M138.594 71.315 C 137.220 72.955,136.400 74.166,136.401 74.554 C 136.402 74.799,136.760 74.415,137.196 73.700 C 137.632 72.985,138.128 72.400,138.298 72.400 C 138.468 72.400,138.832 72.040,139.107 71.600 C 139.647 70.736,139.259 70.521,138.594 71.315 M225.900 73.133 C 226.698 73.969,227.009 73.921,226.662 73.017 C 226.532 72.678,226.149 72.400,225.813 72.400 C 225.294 72.400,225.308 72.513,225.900 73.133 M214.577 74.438 C 214.454 74.637,214.813 74.800,215.376 74.800 C 216.602 74.800,216.701 74.572,215.600 74.284 C 215.161 74.169,214.700 74.238,214.577 74.438 M231.600 76.400 C 232.040 76.840,232.518 77.200,232.662 77.200 C 232.806 77.200,232.598 76.840,232.200 76.400 C 231.802 75.960,231.324 75.600,231.138 75.600 C 230.952 75.600,231.160 75.960,231.600 76.400 M236.671 80.100 C 238.461 81.523,239.950 82.311,239.251 81.464 C 238.949 81.099,238.482 80.800,238.213 80.800 C 237.944 80.800,237.398 80.440,237.000 80.000 C 236.602 79.560,236.110 79.200,235.907 79.200 C 235.705 79.200,236.048 79.605,236.671 80.100 M129.300 82.718 C 128.805 83.273,128.400 83.892,128.400 84.094 C 128.400 84.296,128.872 83.900,129.450 83.214 C 130.711 81.715,130.581 81.283,129.300 82.718 M224.000 84.013 C 224.000 84.239,224.254 84.522,224.563 84.641 C 224.873 84.760,225.345 85.385,225.612 86.029 C 226.137 87.296,226.800 87.593,226.800 86.560 C 226.800 86.209,226.241 85.399,225.558 84.760 C 224.199 83.491,224.000 83.396,224.000 84.013 M242.000 84.247 C 242.000 84.467,242.264 84.996,242.587 85.424 C 242.910 85.851,243.175 86.020,243.175 85.800 C 243.175 85.580,242.910 85.051,242.587 84.624 C 242.264 84.196,242.000 84.027,242.000 84.247 M127.780 85.315 C 127.549 85.582,127.231 86.160,127.075 86.600 C 126.848 87.236,126.953 87.194,127.586 86.400 C 128.594 85.135,128.764 84.179,127.780 85.315 M125.054 88.255 C 124.423 88.797,124.008 89.341,124.130 89.463 C 124.252 89.585,124.832 89.205,125.418 88.618 C 126.800 87.236,126.539 86.976,125.054 88.255 M179.256 88.013 C 178.736 88.446,177.986 88.800,177.588 88.800 C 175.423 88.800,175.021 89.888,176.700 91.204 C 177.305 91.678,178.070 92.623,178.400 93.304 C 178.730 93.985,179.249 94.623,179.553 94.722 C 180.118 94.906,180.120 94.938,179.355 91.203 C 179.151 90.205,179.317 89.826,180.355 88.914 C 182.328 87.183,181.282 86.325,179.256 88.013 M120.400 95.399 C 119.637 96.826,120.080 96.984,120.889 95.574 C 121.260 94.928,121.422 94.400,121.249 94.400 C 121.076 94.400,120.694 94.850,120.400 95.399 M240.615 97.665 C 240.280 99.351,240.652 100.915,241.334 100.691 C 242.044 100.457,242.107 99.052,241.474 97.549 L 240.906 96.200 240.615 97.665 M251.080 101.983 C 251.341 102.984,252.000 103.477,252.000 102.673 C 252.000 102.357,251.744 101.886,251.431 101.626 C 250.965 101.239,250.902 101.303,251.080 101.983 M117.600 103.224 C 117.600 103.677,117.780 103.936,118.000 103.800 C 118.220 103.664,118.400 103.293,118.400 102.976 C 118.400 102.659,118.220 102.400,118.000 102.400 C 117.780 102.400,117.600 102.771,117.600 103.224 M251.600 103.838 C 251.600 104.002,251.891 104.459,252.247 104.852 C 252.603 105.245,253.035 106.160,253.206 106.884 C 253.515 108.188,253.518 108.189,253.559 107.058 C 253.583 106.376,253.197 105.436,252.600 104.727 C 252.050 104.073,251.600 103.673,251.600 103.838 M116.375 104.500 C 116.361 104.555,116.283 105.410,116.201 106.400 L 116.052 108.200 116.484 106.600 C 116.721 105.720,117.114 104.868,117.358 104.706 C 117.632 104.524,117.534 104.410,117.100 104.406 C 116.715 104.403,116.389 104.445,116.375 104.500 M115.265 109.061 C 114.960 109.392,114.852 109.932,115.014 110.321 C 115.243 110.866,115.365 110.768,115.636 109.820 C 116.038 108.417,115.976 108.290,115.265 109.061 M221.067 108.667 C 220.542 109.191,220.813 110.379,221.547 110.772 C 222.489 111.276,222.800 110.968,222.800 109.533 C 222.800 108.438,221.797 107.937,221.067 108.667 M103.900 111.320 C 103.295 111.559,102.800 111.904,102.800 112.087 C 102.800 112.271,103.295 112.166,103.900 111.856 C 104.640 111.476,106.569 111.268,109.789 111.223 C 112.423 111.186,114.658 111.075,114.756 110.978 C 115.142 110.591,104.929 110.913,103.900 111.320 M264.800 111.187 C 270.410 111.304,275.225 111.546,275.500 111.724 C 275.775 111.902,276.000 111.878,276.000 111.670 C 276.000 110.939,274.102 110.812,264.400 110.892 L 254.600 110.973 264.800 111.187 M279.824 113.387 C 280.251 113.710,280.780 113.975,281.000 113.975 C 281.220 113.975,281.051 113.710,280.624 113.387 C 280.196 113.064,279.667 112.800,279.447 112.800 C 279.227 112.800,279.396 113.064,279.824 113.387 M96.545 115.400 C 96.418 115.730,96.064 116.000,95.757 116.000 C 95.451 116.000,95.200 116.186,95.200 116.414 C 95.200 117.011,96.646 116.177,96.940 115.411 C 97.069 115.075,97.085 114.800,96.975 114.800 C 96.865 114.800,96.671 115.070,96.545 115.400 M283.902 116.331 C 284.743 116.865,286.387 119.297,286.158 119.668 C 285.594 120.581,286.966 122.897,288.936 124.358 C 293.559 127.785,296.731 132.517,297.617 137.307 C 297.873 138.693,297.977 161.546,297.907 201.430 L 297.800 263.400 296.863 265.796 C 294.555 271.694,290.789 275.516,284.951 277.884 L 282.200 279.000 198.600 279.000 C 121.459 279.000,114.892 278.949,113.600 278.334 C 112.830 277.968,111.526 277.460,110.701 277.204 C 109.877 276.948,108.956 276.387,108.655 275.957 C 108.294 275.442,107.337 275.050,105.848 274.808 C 104.605 274.606,103.380 274.311,103.125 274.154 C 102.870 273.996,102.018 273.741,101.231 273.586 C 100.444 273.432,99.318 273.175,98.728 273.016 C 97.779 272.760,97.681 272.823,97.875 273.564 C 97.999 274.039,98.419 274.400,98.847 274.400 C 99.403 274.400,99.600 274.689,99.600 275.506 C 99.600 276.717,102.596 280.000,103.701 280.000 C 104.034 280.000,104.401 280.360,104.516 280.800 C 104.666 281.374,105.062 281.600,105.916 281.600 C 106.770 281.600,107.166 281.826,107.316 282.400 C 107.647 283.665,291.153 283.665,291.484 282.400 C 291.643 281.794,292.030 281.600,293.084 281.600 C 294.138 281.600,294.525 281.406,294.684 280.800 C 294.799 280.360,295.154 280.000,295.474 280.000 C 296.191 280.000,298.800 277.289,298.800 276.544 C 298.800 276.245,299.051 276.000,299.357 276.000 C 300.002 276.000,300.400 275.148,300.400 273.767 C 300.400 273.207,300.635 272.800,300.957 272.800 C 301.985 272.800,302.000 271.759,302.000 200.781 C 302.000 130.438,301.995 130.026,301.200 129.600 C 300.668 129.315,300.400 128.762,300.400 127.948 C 300.400 127.062,300.180 126.668,299.600 126.516 C 299.157 126.400,298.800 125.970,298.800 125.553 C 298.800 125.100,298.519 124.800,298.095 124.800 C 297.707 124.800,297.212 124.395,296.995 123.900 C 296.778 123.405,296.206 122.827,295.725 122.616 C 295.243 122.404,294.765 121.909,294.662 121.516 C 294.535 121.030,294.092 120.800,293.284 120.800 C 292.430 120.800,292.034 120.574,291.884 120.000 C 291.709 119.332,291.338 119.200,289.637 119.200 C 288.078 119.200,287.600 119.057,287.600 118.590 C 287.600 118.234,287.106 117.881,286.412 117.742 C 285.742 117.608,285.119 117.176,284.985 116.752 C 284.854 116.339,284.443 116.003,284.073 116.006 C 283.585 116.011,283.538 116.100,283.902 116.331 M93.282 118.738 C 92.645 120.089,92.824 120.112,93.875 118.814 C 94.408 118.156,94.556 117.733,94.253 117.733 C 93.980 117.733,93.543 118.185,93.282 118.738 M91.899 121.377 C 91.515 121.658,91.200 122.093,91.200 122.344 C 91.200 122.595,91.575 122.425,92.033 121.967 C 93.002 120.998,92.918 120.632,91.899 121.377 M90.264 125.529 C 89.899 125.933,89.611 126.609,89.625 127.031 C 89.646 127.657,89.724 127.615,90.045 126.811 C 90.262 126.268,90.651 125.692,90.908 125.533 C 91.166 125.374,91.276 125.143,91.153 125.019 C 91.029 124.896,90.630 125.125,90.264 125.529 M129.782 154.102 C 129.306 155.344,129.803 182.535,130.306 182.702 C 131.861 183.220,133.042 157.095,131.586 154.374 C 131.118 153.500,130.073 153.343,129.782 154.102 M275.813 173.270 C 275.712 173.562,275.564 185.590,275.486 200.000 C 275.343 226.059,274.841 234.868,273.364 237.259 C 273.251 237.441,272.893 238.610,272.568 239.857 C 268.492 255.508,254.593 264.574,234.800 264.491 C 229.189 264.468,217.891 263.274,216.779 262.587 C 216.409 262.358,210.873 261.228,209.400 261.080 C 208.854 261.025,208.600 261.240,208.600 261.756 C 208.600 262.695,209.127 262.975,212.400 263.773 C 251.982 273.422,274.109 261.897,277.240 230.000 C 277.978 222.479,277.510 173.032,276.699 172.876 C 276.313 172.802,275.915 172.979,275.813 173.270 M234.545 186.769 C 231.998 187.926,229.849 190.122,228.358 193.094 C 226.621 196.555,226.272 206.002,227.800 208.170 C 228.240 208.795,228.835 209.687,229.122 210.153 C 229.572 210.882,229.600 210.693,229.322 208.800 C 227.349 195.329,234.762 185.442,244.262 188.877 C 246.022 189.513,246.409 189.002,245.092 187.780 C 242.952 185.796,237.780 185.300,234.545 186.769 M139.000 194.776 C 135.318 195.679,130.305 199.484,129.577 201.927 C 128.756 204.687,129.241 221.949,130.159 222.620 C 131.495 223.596,131.600 222.924,131.600 213.436 L 131.600 204.120 132.804 202.459 C 135.262 199.065,141.760 196.249,145.083 197.138 C 148.304 197.999,148.825 197.765,147.092 196.234 C 145.155 194.523,142.203 193.991,139.000 194.776 M182.013 195.650 C 182.006 196.447,182.306 197.887,182.679 198.850 C 183.986 202.214,183.692 218.802,182.242 223.600 C 178.168 237.072,171.034 245.149,159.600 249.235 C 155.850 250.575,144.166 250.590,140.885 249.258 C 139.722 248.786,138.386 248.400,137.917 248.400 C 137.447 248.400,136.749 248.116,136.364 247.768 C 135.980 247.420,135.246 247.209,134.733 247.299 C 133.878 247.449,133.920 247.516,135.232 248.108 C 136.019 248.463,136.896 249.034,137.181 249.377 C 137.465 249.720,137.970 250.000,138.302 250.000 C 138.634 250.000,139.467 250.339,140.153 250.753 C 143.756 252.929,152.503 253.714,158.435 252.392 C 174.744 248.759,184.403 235.619,186.214 214.600 C 186.517 211.083,185.158 201.276,184.019 198.767 C 183.578 197.795,183.214 196.719,183.209 196.376 C 183.187 194.827,182.026 194.122,182.013 195.650 M246.000 228.856 C 238.628 234.279,226.549 236.863,220.651 234.279 C 218.982 233.547,216.371 233.332,217.020 233.979 C 217.852 234.809,221.439 236.471,223.168 236.827 C 229.320 238.095,229.518 238.107,233.510 237.432 C 241.858 236.022,249.596 231.498,249.124 228.304 C 248.933 227.007,248.381 227.104,246.000 228.856 M124.941 240.417 C 124.648 240.711,124.559 241.722,124.696 243.226 C 124.858 245.012,124.750 245.817,124.245 246.587 L 123.582 247.600 114.035 247.600 C 104.122 247.600,101.994 247.972,102.960 249.535 C 103.387 250.226,125.749 250.192,126.299 249.500 C 127.910 247.471,126.606 238.745,124.941 240.417 M89.625 260.638 C 89.611 261.099,90.002 261.819,90.493 262.238 C 90.992 262.664,91.176 262.726,90.909 262.378 C 90.647 262.037,90.256 261.317,90.041 260.778 C 89.685 259.886,89.648 259.874,89.625 260.638 M108.976 290.967 C 108.282 291.475,108.187 292.137,108.075 297.267 C 107.894 305.543,108.064 306.109,110.851 306.555 C 113.613 306.997,116.800 306.579,116.800 305.775 C 116.800 305.459,117.042 305.200,117.338 305.200 C 118.045 305.200,119.200 303.905,119.200 303.111 C 119.200 302.767,119.470 302.382,119.800 302.255 C 120.130 302.129,120.400 301.654,120.400 301.200 C 120.400 300.746,120.130 300.271,119.800 300.145 C 119.333 299.965,119.200 299.175,119.200 296.580 C 119.200 293.299,119.181 293.234,117.999 292.536 C 117.339 292.146,116.697 291.506,116.573 291.113 C 116.275 290.177,110.217 290.061,108.976 290.967 M124.092 290.948 C 123.190 291.394,123.184 291.451,123.292 298.798 L 123.400 306.200 125.544 306.322 C 127.164 306.415,127.880 306.270,128.477 305.731 C 129.222 305.056,129.287 305.055,129.653 305.708 C 130.109 306.523,133.158 306.682,133.910 305.930 C 134.253 305.587,134.312 303.787,134.127 299.311 L 133.873 293.162 132.608 291.781 C 131.241 290.288,126.385 289.813,124.092 290.948 M142.599 290.706 C 142.379 290.868,141.947 291.489,141.639 292.086 C 141.331 292.684,140.932 293.081,140.751 292.970 C 140.364 292.730,139.713 295.012,139.631 296.900 C 139.614 297.285,139.349 297.600,139.043 297.600 C 138.274 297.600,138.005 298.482,137.968 301.133 C 137.951 302.380,137.846 303.175,137.735 302.900 C 137.388 302.041,136.800 302.353,136.800 303.397 C 136.800 305.951,141.271 307.710,142.400 305.600 C 142.635 305.160,143.092 304.800,143.414 304.800 C 143.736 304.800,144.000 304.530,144.000 304.200 C 144.000 303.122,144.676 303.570,145.056 304.900 C 145.587 306.762,150.134 307.152,150.803 305.393 C 151.506 303.544,151.295 300.610,150.400 299.800 C 149.960 299.402,149.600 298.622,149.600 298.066 C 149.600 296.484,148.712 294.426,147.920 294.175 C 147.422 294.017,147.200 293.547,147.200 292.653 C 147.200 290.681,144.304 289.456,142.599 290.706 M155.640 290.952 C 155.323 291.334,155.215 293.771,155.291 298.852 L 155.400 306.200 157.618 306.318 C 159.809 306.434,159.843 306.418,160.518 305.004 C 161.351 303.255,161.504 294.003,160.726 292.354 C 159.905 290.615,156.661 289.721,155.640 290.952 M164.935 291.402 C 163.319 293.247,163.040 303.876,164.563 305.559 C 165.660 306.771,169.970 306.802,170.284 305.600 C 170.399 305.160,170.638 304.800,170.814 304.800 C 171.592 304.800,172.400 305.331,172.400 305.843 C 172.400 306.696,177.028 306.625,177.357 305.767 C 177.491 305.419,177.599 302.044,177.597 298.267 L 177.594 291.400 176.517 290.900 C 173.961 289.713,171.600 290.699,171.600 292.955 C 171.600 293.618,171.434 293.945,171.179 293.787 C 170.947 293.644,170.833 293.318,170.924 293.063 C 171.795 290.636,166.815 289.256,164.935 291.402 M190.475 291.400 C 189.997 291.950,189.424 292.400,189.203 292.400 C 188.981 292.400,188.800 292.739,188.800 293.153 C 188.800 293.570,188.443 294.000,188.000 294.116 C 187.264 294.308,187.200 294.662,187.200 298.559 C 187.200 302.360,187.282 302.844,188.000 303.293 C 188.440 303.568,188.800 304.019,188.800 304.296 C 188.800 304.573,188.973 304.800,189.184 304.800 C 189.396 304.800,189.938 305.197,190.390 305.681 C 191.815 307.211,198.483 307.137,199.205 305.583 C 199.354 305.262,199.688 304.591,199.947 304.091 C 200.805 302.435,200.943 299.838,200.245 298.487 C 199.823 297.672,199.600 296.222,199.600 294.300 C 199.600 290.511,199.469 290.400,194.992 290.400 C 191.600 290.400,191.283 290.470,190.475 291.400 M207.907 291.100 C 207.567 291.485,207.165 292.385,207.013 293.100 C 206.861 293.815,206.500 294.400,206.211 294.400 C 205.524 294.400,205.200 295.303,205.200 297.219 C 205.200 298.362,204.989 298.885,204.400 299.200 C 203.456 299.705,203.202 305.042,204.080 305.920 C 205.469 307.309,209.600 306.193,209.600 304.429 C 209.600 303.420,210.330 303.332,210.673 304.300 C 211.450 306.491,215.788 307.382,217.338 305.669 C 218.169 304.751,218.257 302.216,217.448 302.526 C 217.038 302.684,216.847 302.228,216.705 300.756 C 216.589 299.546,216.202 298.429,215.710 297.887 C 215.268 297.399,214.797 296.280,214.665 295.400 C 214.531 294.509,214.065 293.506,213.612 293.136 C 213.165 292.771,212.800 292.222,212.800 291.916 C 212.800 290.350,209.111 289.735,207.907 291.100 M221.240 290.952 C 220.923 291.334,220.815 293.771,220.891 298.852 L 221.000 306.200 223.500 306.319 C 225.708 306.424,226.000 306.352,226.000 305.699 C 226.000 305.293,226.193 304.767,226.430 304.530 C 227.249 303.711,226.738 292.234,225.838 291.241 C 224.940 290.250,221.977 290.064,221.240 290.952 M231.298 290.862 C 230.722 291.438,230.583 305.038,231.144 305.923 C 231.910 307.131,235.756 306.351,236.183 304.900 C 236.599 303.486,237.200 303.154,237.200 304.338 C 237.200 305.733,238.530 306.455,240.856 306.322 L 243.000 306.200 243.109 298.851 C 243.208 292.208,243.150 291.450,242.509 290.964 C 240.951 289.781,237.641 290.661,237.116 292.396 C 236.993 292.805,236.756 292.616,236.365 291.796 C 235.723 290.453,232.332 289.828,231.298 290.862 M255.300 290.944 C 254.805 291.189,254.400 291.707,254.400 292.095 C 254.400 292.533,254.097 292.800,253.600 292.800 C 251.365 292.800,253.098 299.125,255.600 300.102 C 255.935 300.233,255.661 300.351,254.980 300.368 C 252.957 300.421,251.693 304.591,253.300 305.914 C 254.611 306.993,261.200 306.951,261.200 305.863 C 261.200 305.595,261.740 305.172,262.400 304.922 C 264.528 304.119,264.098 297.200,261.920 297.200 C 261.524 297.200,261.200 297.020,261.200 296.800 C 261.200 296.580,261.524 296.400,261.920 296.400 C 263.861 296.400,264.403 292.218,262.614 291.046 C 261.464 290.293,256.748 290.227,255.300 290.944 M268.500 291.061 C 267.441 291.810,267.070 304.910,268.080 305.920 C 269.877 307.717,273.565 306.097,273.587 303.500 C 273.598 302.255,273.740 302.000,274.426 302.000 C 275.559 302.000,276.800 301.285,276.800 300.633 C 276.800 300.336,277.160 299.999,277.600 299.884 C 278.741 299.586,278.828 292.990,277.696 292.631 C 277.309 292.508,276.814 292.001,276.596 291.504 C 276.075 290.315,270.024 289.984,268.500 291.061 M284.921 291.100 C 284.781 291.485,284.136 292.552,283.486 293.471 C 282.580 294.754,282.344 295.468,282.469 296.543 C 282.559 297.314,282.503 297.863,282.344 297.765 C 281.858 297.465,280.800 299.312,280.800 300.460 C 280.800 301.056,280.530 301.813,280.200 302.143 C 279.870 302.473,279.600 303.268,279.600 303.909 C 279.600 306.772,284.262 307.532,286.283 305.000 C 287.544 303.419,288.000 303.251,288.000 304.367 C 288.000 306.110,288.397 306.400,290.779 306.400 C 292.848 306.400,293.117 306.300,293.536 305.381 C 294.602 303.040,293.670 298.811,292.084 298.798 C 291.928 298.796,291.782 297.890,291.759 296.785 C 291.733 295.495,291.498 294.600,291.103 294.287 C 290.766 294.019,290.374 293.142,290.234 292.339 C 289.944 290.681,289.468 290.400,286.955 290.400 C 285.623 290.400,285.111 290.576,284.921 291.100 " stroke="none" fill="#22291c" fill-rule="evenodd"></path><path id="path4" d="M287.800 193.500 L 287.800 261.400 286.323 264.492 C 284.143 269.058,280.439 272.342,276.000 273.644 C 274.573 274.062,266.278 274.189,236.000 274.252 C 214.990 274.296,195.730 274.344,193.200 274.359 C 190.670 274.374,171.050 274.255,149.600 274.093 C 128.150 273.932,110.375 273.864,110.100 273.943 C 108.348 274.443,110.908 276.544,114.275 277.369 C 118.555 278.418,279.649 278.128,283.336 277.065 C 289.707 275.228,294.827 269.787,295.998 263.609 C 296.646 260.193,296.524 139.269,295.869 136.147 C 295.055 132.265,290.283 125.600,288.317 125.600 C 287.896 125.600,287.800 138.247,287.800 193.500 M272.059 161.490 C 271.811 161.954,271.796 162.465,272.022 162.822 C 272.223 163.140,272.393 163.940,272.400 164.600 C 272.427 167.282,273.715 167.392,274.600 164.788 C 275.092 163.343,275.710 163.278,276.072 164.633 C 276.838 167.495,283.200 167.854,283.200 165.036 C 283.200 161.883,282.293 160.694,280.587 161.607 C 279.918 161.965,279.471 161.995,279.114 161.708 C 278.019 160.830,272.504 160.659,272.059 161.490 " stroke="none" fill="#c9ccc8" fill-rule="evenodd"></path></g></svg>