<?xml version="1.0" standalone="no"?>
<!DOCTYPE svg PUBLIC "-//W3C//DTD SVG 20010904//EN"
 "http://www.w3.org/TR/2001/REC-SVG-20010904/DTD/svg10.dtd">
<svg version="1.0" xmlns="http://www.w3.org/2000/svg"
 width="512.000000pt" height="512.000000pt" viewBox="0 0 512.000000 512.000000"
 preserveAspectRatio="xMidYMid meet">

<g transform="translate(0.000000,512.000000) scale(0.100000,-0.100000)"
fill="#000000" stroke="none">
<path d="M0 2560 l0 -2560 2560 0 2560 0 0 2560 0 2560 -2560 0 -2560 0 0
-2560z m2507 1724 c17 -8 34 -18 38 -24 3 -5 24 -10 45 -10 42 0 124 -17 152
-31 10 -5 22 -9 28 -9 10 0 150 -90 150 -96 0 -9 -68 20 -117 50 -35 21 -82
39 -117 45 -33 6 -61 13 -63 15 -3 2 -19 0 -36 -5 -27 -8 -35 -5 -62 19 -46
42 -99 57 -147 41 -29 -9 -41 -10 -50 -1 -7 7 -29 12 -51 12 -54 0 -48 -30 10
-45 84 -20 122 -75 53 -75 -16 0 -40 -4 -54 -10 -26 -10 -56 -4 -56 10 0 4 12
11 26 14 33 9 30 43 -4 38 -12 -2 -51 13 -86 32 -91 51 -120 48 -196 -21 -19
-18 -44 -33 -56 -33 -32 0 -84 -40 -108 -83 -11 -21 -35 -46 -52 -56 -17 -10
-39 -35 -48 -56 -10 -20 -34 -53 -55 -74 -20 -20 -42 -56 -50 -81 -7 -25 -24
-66 -37 -91 -22 -42 -23 -56 -20 -170 3 -136 12 -162 67 -197 16 -10 38 -34
48 -52 10 -19 35 -48 56 -65 35 -28 42 -30 123 -29 78 0 89 -2 112 -23 43 -42
101 -66 160 -68 30 -1 72 -10 94 -19 21 -9 53 -16 71 -16 26 0 39 -8 67 -42
67 -85 63 -35 63 -783 l0 -680 59 -3 c32 -2 63 1 68 6 9 9 15 1187 5 1217 -12
39 -28 198 -22 225 4 18 22 38 53 58 43 27 51 29 97 22 28 -5 72 -9 99 -9 45
-1 53 3 87 39 24 25 47 40 62 40 32 0 89 39 105 73 7 15 17 27 23 27 5 0 27
12 48 26 52 34 75 83 67 141 -4 33 -1 51 14 76 39 62 19 189 -40 264 -11 14
-20 35 -20 45 0 55 -89 168 -132 168 -25 0 -21 -28 7 -44 38 -22 58 -52 70
-106 4 -19 17 -51 29 -70 48 -76 66 -148 50 -207 -7 -25 -34 -32 -34 -9 0 16
-27 29 -41 20 -5 -3 -1 -22 10 -42 10 -20 24 -56 31 -79 11 -37 11 -45 -6 -74
-21 -35 -49 -57 -60 -46 -4 4 0 15 9 25 31 34 21 74 -33 136 -59 67 -66 89
-46 137 15 36 15 36 60 29 25 -4 55 -15 66 -25 18 -16 20 -16 26 -1 12 30 -49
76 -101 76 -18 0 -29 8 -37 28 -26 60 -78 95 -78 52 0 -11 4 -20 8 -20 15 0
33 -68 24 -87 -14 -27 -32 -87 -32 -106 0 -24 19 -55 62 -102 21 -22 38 -49
38 -59 0 -20 0 -20 -14 0 -13 17 -15 17 -21 2 -4 -9 -2 -25 4 -37 15 -27 14
-103 -1 -123 -15 -19 -88 -36 -88 -21 0 6 9 18 21 29 26 23 49 67 49 91 0 24
-57 92 -86 104 -18 6 -24 16 -24 39 0 31 -17 39 -38 18 -30 -30 -1 -102 46
-111 41 -9 56 -40 37 -77 -17 -33 -36 -38 -55 -15 -11 13 -50 22 -50 11 0 -3
11 -26 25 -52 28 -53 30 -71 10 -98 -12 -15 -22 -18 -57 -12 -142 21 -137 18
-130 67 3 22 15 37 42 54 43 27 84 78 93 114 16 63 -40 143 -126 181 -40 18
-47 25 -47 49 0 15 9 36 20 46 18 16 21 17 44 1 32 -21 60 -20 94 1 37 24 51
44 52 71 0 13 4 20 10 17 15 -9 12 -69 -5 -91 -16 -22 -20 -54 -6 -54 6 0 13
5 17 11 4 7 10 7 16 1 6 -6 4 -19 -8 -36 -13 -21 -14 -30 -5 -39 8 -8 17 -6
34 11 20 21 22 31 19 110 -3 81 -5 89 -32 117 -31 32 -37 63 -19 97 15 28 -2
44 -30 26 -17 -11 -21 -23 -21 -70 0 -60 -13 -107 -33 -120 -23 -15 -66 -8
-87 14 -28 31 -26 79 5 108 32 30 48 17 49 -40 1 -22 4 -40 9 -40 4 0 11 0 16
0 5 0 14 13 19 30 9 24 7 37 -13 73 -14 28 -21 54 -18 70 4 22 -3 35 -35 67
-40 40 -72 52 -72 27 0 -8 11 -24 25 -37 39 -37 34 -77 -16 -121 -44 -37 -51
-61 -36 -124 5 -25 1 -36 -24 -65 l-30 -35 6 48 c8 49 2 56 -27 33 -13 -9 -18
-27 -18 -59 0 -60 30 -95 117 -137 82 -40 102 -63 102 -115 0 -34 -16 -75 -30
-75 -2 0 -4 23 -4 50 0 34 -5 54 -15 60 -27 17 -35 4 -36 -57 -1 -46 -8 -69
-29 -103 -16 -25 -30 -66 -35 -97 -9 -74 -40 -93 -80 -51 -31 33 -25 53 30 92
65 47 89 94 71 139 -8 18 -13 55 -12 82 2 46 -1 53 -39 90 -54 52 -70 84 -70
137 1 59 57 172 87 176 23 3 83 67 83 89 0 25 -18 21 -54 -13 -40 -38 -46 -39
-143 -18 -25 5 -33 3 -33 -8 0 -19 20 -38 41 -38 10 0 20 -4 24 -10 5 -9 -28
-92 -48 -117 -21 -29 -100 45 -90 85 3 12 0 36 -7 52 -12 28 -10 32 14 55 49
46 26 68 -33 30 -23 -14 -55 -25 -71 -25 -27 0 -31 -3 -28 -22 2 -17 9 -23 26
-22 34 1 58 -39 43 -72 -15 -33 -14 -56 2 -52 7 2 30 -16 50 -39 21 -23 48
-43 60 -45 15 -2 23 -13 28 -37 4 -18 13 -45 20 -58 11 -20 11 -26 -1 -34 -15
-9 -29 -8 -62 6 -30 12 -22 -30 9 -50 22 -15 32 -16 58 -6 54 19 75 10 75 -32
0 -17 -169 -9 -187 8 -26 26 -8 102 31 134 20 16 21 41 2 41 -23 0 -62 -37
-86 -83 -23 -44 -23 -46 -7 -89 24 -61 56 -78 151 -78 63 0 80 -4 96 -20 28
-28 25 -63 -9 -99 -31 -33 -54 -41 -45 -16 9 22 -23 19 -36 -4 -5 -11 -12 -43
-14 -73 -3 -38 -8 -54 -20 -56 -17 -4 -22 23 -6 33 20 12 11 97 -15 141 -40
68 -96 75 -60 7 24 -45 27 -129 5 -143 -23 -15 -80 -12 -86 4 -8 20 25 66 54
77 28 11 25 30 -6 44 -12 5 -22 14 -22 20 0 6 -9 28 -20 49 -18 35 -18 41 -4
68 17 32 15 89 -2 95 -6 2 -17 -11 -24 -29 -27 -66 -64 -85 -106 -53 -10 8
-29 15 -41 15 -26 0 -37 28 -24 62 7 18 22 28 55 38 38 10 58 26 106 82 59 69
66 82 54 112 -10 25 -44 20 -44 -6 0 -48 -15 -53 -58 -18 -40 31 -71 37 -80
13 -2 -7 10 -21 27 -30 67 -38 43 -94 -44 -107 -36 -6 -42 -11 -57 -49 -10
-23 -18 -67 -19 -97 -1 -30 -2 -73 -2 -95 -1 -26 5 -50 18 -67 23 -30 62 -52
70 -39 6 11 -4 41 -14 41 -11 0 -31 48 -31 74 0 34 25 39 76 15 25 -11 53 -17
63 -14 27 8 43 -18 44 -72 2 -39 -4 -55 -26 -85 -35 -45 -54 -52 -105 -39
-104 28 -180 135 -182 256 -1 77 52 164 119 195 52 24 56 27 59 44 4 21 -35
22 -65 1 -31 -22 -37 -3 -15 47 29 66 42 73 138 70 92 -3 124 8 124 39 0 17
-4 19 -22 12 -24 -8 -97 -7 -107 2 -3 3 2 31 10 62 20 78 49 100 117 86 53
-10 96 -1 89 19 -4 13 -9 14 -51 17 -40 2 1 23 49 24 47 2 48 1 71 -43 25 -49
69 -90 97 -90 27 0 77 29 77 44 0 10 -14 13 -51 12 -51 -1 -52 0 -73 40 -12
23 -27 48 -33 56 -11 12 -9 17 13 26 41 19 109 14 168 -13 64 -29 66 -30 66
-10 0 8 1 15 3 15 1 0 29 -25 61 -55 32 -30 63 -55 68 -55 13 0 35 -27 48 -57
11 -27 37 -30 42 -6 2 12 11 5 30 -25 30 -44 63 -68 73 -52 7 11 -55 110 -99
159 l-31 33 33 -7 c25 -5 33 -3 38 10 6 14 8 14 31 0 74 -49 125 -102 151
-159 12 -25 22 -54 22 -64 0 -10 11 -33 24 -51 27 -36 40 -66 56 -128 l11 -43
149 0 c168 0 188 -6 265 -80 144 -138 143 -136 155 -191 8 -39 10 -275 8 -854
-3 -892 2 -825 -74 -899 -71 -69 -12 -66 -1183 -66 -696 0 -1069 4 -1093 10
-21 6 -43 19 -50 28 -7 10 -31 23 -54 30 -22 6 -57 26 -77 43 -71 61 -68 15
-65 984 3 847 4 871 23 900 27 41 66 75 87 75 9 0 20 5 23 10 3 6 44 10 90 10
91 0 84 -4 100 65 4 16 17 54 31 83 13 29 24 57 24 63 0 21 41 90 63 104 13 8
30 27 37 43 8 15 32 45 54 67 23 22 48 55 57 72 16 29 52 52 106 68 13 3 29
12 35 18 54 53 81 62 198 68 153 7 337 -1 377 -17z m-360 -70 c53 -31 49 -43
-7 -24 -22 7 -43 10 -47 6 -15 -15 15 -39 67 -56 l55 -16 -44 -22 c-52 -26
-61 -27 -61 -8 0 20 -50 66 -71 66 -24 0 -24 -25 -1 -42 23 -16 42 -51 42 -75
-1 -17 -1 -17 -11 0 -16 28 -68 49 -104 43 -53 -10 -80 -48 -80 -113 0 -48 -3
-57 -23 -66 -44 -20 -15 -55 32 -37 28 10 36 28 36 85 0 27 7 51 19 66 18 23
20 23 53 8 44 -21 63 -58 51 -96 -15 -43 -37 -36 -41 15 -3 33 -7 42 -22 42
-23 0 -35 -46 -20 -84 8 -23 7 -32 -11 -54 -31 -40 -49 -89 -49 -135 0 -56
-12 -39 -21 31 -6 43 -14 62 -34 80 -14 12 -30 22 -36 22 -15 0 -11 -36 6 -50
9 -8 15 -30 15 -57 0 -24 7 -57 15 -74 13 -24 13 -33 3 -52 -6 -12 -14 -37
-17 -56 -8 -46 -31 -53 -31 -11 0 27 -3 32 -20 27 -13 -3 -20 0 -20 9 0 24 24
94 32 94 5 0 8 7 8 16 0 10 -7 14 -22 12 -25 -4 -67 -78 -68 -120 0 -34 -17
-78 -29 -78 -5 0 -11 12 -13 28 -2 19 -9 27 -23 27 -17 0 -21 -8 -25 -60 -5
-54 -6 -58 -17 -38 -16 27 -16 54 -2 90 6 15 15 38 20 51 5 12 13 32 18 45 6
12 11 31 13 41 3 18 4 18 20 3 9 -9 18 -21 20 -27 2 -6 11 -8 21 -4 23 8 14
41 -20 72 -19 18 -32 22 -54 17 -30 -7 -39 5 -16 22 6 6 29 16 50 22 50 17 51
45 2 39 -31 -4 -34 -2 -29 17 13 41 45 65 89 65 48 0 95 30 95 61 0 22 -22 25
-39 5 -15 -18 -49 -27 -57 -15 -10 17 50 66 91 73 42 8 78 33 69 47 -3 5 -16
6 -30 3 -14 -4 -24 -2 -24 4 0 18 52 52 80 52 16 0 36 10 51 26 31 35 79 64
103 64 11 0 39 -12 63 -26z m318 16 c11 -18 -45 -24 -63 -6 -15 15 -14 16 20
16 20 0 40 -4 43 -10z m313 -99 c15 -10 34 -21 42 -24 8 -3 1 -6 -16 -6 -20
-1 -38 7 -54 24 -28 30 -10 33 28 6z m-1168 -438 c0 -23 -4 -33 -9 -27 -9 8
-4 64 5 64 2 0 4 -17 4 -37z m164 -191 c4 -11 17 -25 30 -31 17 -9 26 -25 30
-53 4 -22 13 -53 21 -68 17 -32 12 -40 -27 -40 -67 0 -125 49 -143 120 -5 21
-1 27 26 39 17 8 34 22 36 32 7 24 20 24 27 1z"/>
<path d="M1380 3270 c8 -5 26 -10 40 -10 20 0 22 2 10 10 -8 5 -26 10 -40 10
-20 0 -22 -2 -10 -10z"/>
<path d="M1460 3250 c8 -5 31 -9 50 -9 29 0 31 2 15 9 -11 5 -33 9 -50 9 -23
1 -26 -2 -15 -9z"/>
<path d="M1573 3223 c9 -2 25 -2 35 0 9 3 1 5 -18 5 -19 0 -27 -2 -17 -5z"/>
<path d="M1656 3154 c-9 -25 -7 -372 3 -378 12 -8 40 26 42 50 1 10 1 92 1
182 -2 152 -3 162 -21 162 -10 0 -22 -7 -25 -16z"/>
<path d="M3488 3088 c9 -9 15 -9 24 0 9 9 7 12 -12 12 -19 0 -21 -3 -12 -12z"/>
<path d="M3550 3080 c0 -5 5 -10 10 -10 6 0 10 5 10 10 0 6 -4 10 -10 10 -5 0
-10 -4 -10 -10z"/>
<path d="M3648 3054 c-11 -10 -10 -72 1 -78 5 -3 11 2 13 12 6 24 -5 75 -14
66z"/>
<path d="M3458 3003 l-3 -28 -100 -6 -100 -5 135 -1 c74 -1 124 2 110 6 -18 5
-24 13 -22 28 2 12 -1 24 -7 27 -5 4 -11 -6 -13 -21z"/>
<path d="M2847 2993 c-3 -5 46 -8 108 -8 62 0 111 3 108 8 -2 4 -51 7 -108 7
-57 0 -106 -3 -108 -7z"/>
<path d="M2805 2970 c-3 -5 -2 -10 4 -10 5 0 13 5 16 10 3 6 2 10 -4 10 -5 0
-13 -4 -16 -10z"/>
<path d="M3085 2970 c3 -5 14 -10 23 -10 15 0 15 2 2 10 -20 13 -33 13 -25 0z"/>
<path d="M3568 2953 c12 -2 30 -2 40 0 9 3 -1 5 -23 4 -22 0 -30 -2 -17 -4z"/>
<path d="M3170 2930 c0 -5 7 -10 15 -10 8 0 15 -3 15 -8 0 -4 9 -13 19 -19 16
-10 18 -9 14 7 -3 11 -8 18 -12 18 -3 -1 -16 3 -28 10 -15 8 -23 9 -23 2z"/>
<path d="M1875 2920 c-3 -5 -18 -11 -33 -11 -19 -1 -22 -3 -8 -6 10 -3 28 0
40 6 11 6 57 12 101 14 l80 3 -87 2 c-49 1 -89 -2 -93 -8z"/>
<path d="M2706 2915 c-11 -8 -18 -17 -15 -19 2 -2 15 4 28 15 27 22 15 26 -13
4z"/>
<path d="M3532 2918 c-9 -9 -12 -102 -12 -328 0 -476 -20 -585 -133 -707 -50
-55 -92 -82 -172 -113 -53 -21 -77 -23 -205 -24 -104 0 -167 6 -225 19 -44 10
-91 18 -105 19 -33 1 -40 -30 -8 -38 157 -43 213 -51 348 -51 86 0 153 5 185
14 131 37 230 117 289 234 61 120 66 164 66 594 0 210 -4 384 -8 387 -5 3 -14
0 -20 -6z"/>
<path d="M2068 2903 c6 -2 18 -2 25 0 6 3 1 5 -13 5 -14 0 -19 -2 -12 -5z"/>
<path d="M1740 2859 c0 -5 5 -7 10 -4 6 3 10 8 10 11 0 2 -4 4 -10 4 -5 0 -10
-5 -10 -11z"/>
<path d="M2170 2854 c8 -8 23 -20 34 -26 16 -8 15 -4 -6 16 -30 28 -48 35 -28
10z"/>
<path d="M2635 2840 c-10 -11 -16 -22 -13 -25 3 -3 13 6 22 20 20 30 16 32 -9
5z"/>
<path d="M2600 2785 c0 -8 2 -15 4 -15 2 0 6 7 10 15 3 8 1 15 -4 15 -6 0 -10
-7 -10 -15z"/>
<path d="M2270 2756 c0 -4 16 -55 36 -114 33 -97 36 -117 37 -217 0 -88 -5
-125 -22 -180 -66 -205 -212 -325 -396 -325 -98 0 -250 58 -293 112 -30 36
-42 28 -42 -28 l0 -44 -128 0 c-96 0 -133 -4 -148 -14 -39 -29 -4 -37 162 -34
l159 3 3 37 3 37 48 -35 c267 -191 618 -37 690 304 20 97 11 277 -19 347 -28
67 -42 94 -64 124 -14 19 -26 32 -26 27z"/>
<path d="M2581 2744 c0 -11 3 -14 6 -6 3 7 2 16 -1 19 -3 4 -6 -2 -5 -13z"/>
<path d="M2995 2731 c-22 -12 -50 -36 -62 -53 -44 -66 -51 -172 -17 -240 17
-32 54 -57 54 -35 0 7 -6 19 -12 25 -8 8 -13 42 -13 90 0 86 22 136 71 163 36
19 109 16 133 -5 33 -30 37 3 5 35 -40 40 -104 48 -159 20z"/>
<path d="M1756 2626 c-21 -8 -54 -29 -72 -47 l-34 -33 0 -136 c0 -138 5 -160
40 -160 13 0 15 18 12 134 l-3 133 38 32 c32 27 45 31 95 31 31 0 60 -4 63
-10 8 -13 25 -13 25 -1 0 6 -10 21 -22 35 -29 32 -89 41 -142 22z"/>
<path d="M3162 2534 l-2 -110 -37 -22 c-21 -12 -31 -22 -23 -22 9 0 29 12 45
28 l30 27 -6 105 -5 105 -2 -111z"/>
<path d="M1930 2493 c0 -10 5 -25 10 -33 8 -12 10 -9 10 12 0 15 -4 30 -10 33
-5 3 -10 -2 -10 -12z"/>
<path d="M1939 2370 c-7 -35 -4 -48 7 -38 3 4 4 21 2 40 l-3 33 -6 -35z"/>
<path d="M2988 2383 c7 -3 16 -2 19 1 4 3 -2 6 -13 5 -11 0 -14 -3 -6 -6z"/>
<path d="M2581 2314 c0 -11 3 -14 6 -6 3 7 2 16 -1 19 -3 4 -6 -2 -5 -13z"/>
<path d="M1886 2259 c-16 -16 -23 -29 -17 -29 12 0 24 10 50 43 22 28 -1 18
-33 -14z"/>
<path d="M2600 2281 c0 -7 9 -21 20 -33 11 -12 20 -18 20 -14 0 4 -9 19 -20
33 -11 14 -20 20 -20 14z"/>
<path d="M1788 2213 c12 -2 30 -2 40 0 9 3 -1 5 -23 4 -22 0 -30 -2 -17 -4z"/>
<path d="M3125 2185 c-110 -77 -243 -87 -369 -27 -37 17 -70 32 -72 32 -15 0
55 -61 89 -78 81 -39 105 -44 184 -40 123 6 243 70 243 129 0 27 -18 23 -75
-16z"/>
<path d="M3116 2065 c-15 -19 -34 -35 -42 -35 -8 0 -14 -4 -14 -10 0 -20 23
-9 56 26 19 19 34 40 34 45 0 14 -2 12 -34 -26z"/>
<path d="M2728 2043 c7 -3 16 -2 19 1 4 3 -2 6 -13 5 -11 0 -14 -3 -6 -6z"/>
<path d="M2771 2026 c11 -9 69 -14 69 -6 0 6 -16 10 -37 10 -20 0 -34 -2 -32
-4z"/>
<path d="M2885 1999 c52 -10 124 -10 150 1 13 5 -18 8 -85 8 -82 0 -96 -2 -65
-9z"/>
<path d="M2647 1967 c-11 -29 -9 -43 4 -30 6 6 9 19 7 29 -3 18 -4 18 -11 1z"/>
<path d="M2628 1904 c-5 -4 -8 -19 -8 -33 1 -23 2 -24 11 -8 11 19 9 53 -3 41z"/>
<path d="M2600 1815 c0 -8 2 -15 4 -15 2 0 6 7 10 15 3 8 1 15 -4 15 -6 0 -10
-7 -10 -15z"/>
<path d="M3626 1722 c-10 -15 -32 -38 -49 -50 -18 -12 -25 -22 -17 -22 15 0
90 76 90 91 0 14 -4 11 -24 -19z"/>
<path d="M2563 1638 c-2 -5 215 -7 484 -6 268 1 430 4 358 5 -326 7 -837 7
-842 1z"/>
<path d="M1647 1633 c133 -2 353 -2 490 0 136 1 28 2 -242 2 -269 0 -381 -1
-248 -2z"/>
</g>
</svg>
